<svg width="40" height="125" viewBox="0 0 40 125" fill="none" xmlns="http://www.w3.org/2000/svg">
<g clip-path="url(#clip0_347_2839)">
<path fill-rule="evenodd" clip-rule="evenodd" d="M0.447414 35.8415L14.2252 0L25.0883 0L38.8919 35.8415L27.5951 35.8415L25.5585 30.4987L13.4149 30.4987L11.6696 35.8415H0.447414ZM15.4946 23.2636L23.7807 23.2636L20.003 12.1327H19.3363L15.4946 23.2636Z" fill="#FEFBF6"/>
<path d="M0.447414 40.0712L12 40.1133C11.8224 46.4875 13.4149 49.6438 19.5555 49.6859C25.6962 49.7279 22.5585 49.6438 22.5585 49.6438C27.7518 50.0271 28.5279 48.4196 28.4474 44.301H18.0272V40.1133L39.6696 40.1133C39.8265 53.0648 39.0987 59.5849 24.2252 58.8825H15.5585C3.90281 58.676 0.48615 55.4923 0.447414 43.8557L0.447414 40.0712Z" fill="#FEFBF6"/>
<path d="M15.5585 62.7783H24.2252C40.997 62.7653 38.3296 68.426 38.8919 76.024H27.5951C27.5951 76.024 27.5951 71.9056 20.0012 71.9056C12.4074 71.9056 10.8901 74.0205 10.8901 82.8139H0.445678C0.198202 69.8722 0.828873 63.256 15.5585 62.7783Z" fill="#FEFBF6"/>
<path d="M18.0012 78.6955H39.6679V82.7026L18.0012 82.8139L18.0012 78.6955Z" fill="#FEFBF6"/>
<path fill-rule="evenodd" clip-rule="evenodd" d="M0.445678 83.4817L41 99.5102V109.083L0 125L0 114.982L7.55556 112.422L7.55556 96.171L0.445678 93.7222L0.445678 83.4817ZM14.2222 110.419L14.2222 98.2858L29.6667 104.185V104.519L14.2222 110.419Z" fill="#FEFBF6"/>
</g>
<defs>
<clipPath id="clip0_347_2839">
<rect width="40" height="125" fill="white"/>
</clipPath>
</defs>
</svg>
