<svg width="158" height="46" viewBox="0 0 158 46" fill="none" xmlns="http://www.w3.org/2000/svg">
<g clip-path="url(#clip0_350_2918)">
<path d="M66.15 14.56C66.39 14.72 66.53 14.93 66.57 15.19C66.61 15.43 66.55 15.67 66.39 15.91C66.25 16.09 66.07 16.19 65.85 16.21C65.63 16.23 65.42 16.19 65.22 16.09C64.46 15.59 63.64 15.2 62.76 14.92C61.9 14.64 60.97 14.5 59.97 14.5C58.75 14.5 57.61 14.72 56.55 15.16C55.51 15.58 54.6 16.2 53.82 17.02C53.04 17.82 52.43 18.77 51.99 19.87C51.57 20.97 51.36 22.18 51.36 23.5C51.36 24.86 51.58 26.1 52.02 27.22C52.46 28.32 53.07 29.27 53.85 30.07C54.65 30.87 55.57 31.48 56.61 31.9C57.65 32.32 58.77 32.53 59.97 32.53C60.95 32.53 61.87 32.39 62.73 32.11C63.61 31.83 64.43 31.45 65.19 30.97C65.39 30.85 65.6 30.81 65.82 30.85C66.06 30.87 66.25 30.98 66.39 31.18C66.57 31.4 66.63 31.64 66.57 31.9C66.53 32.14 66.4 32.33 66.18 32.47C65.68 32.79 65.09 33.09 64.41 33.37C63.73 33.65 63.01 33.87 62.25 34.03C61.49 34.21 60.73 34.3 59.97 34.3C58.53 34.3 57.18 34.04 55.92 33.52C54.66 33 53.54 32.27 52.56 31.33C51.58 30.37 50.81 29.23 50.25 27.91C49.71 26.59 49.44 25.12 49.44 23.5C49.44 21.94 49.71 20.51 50.25 19.21C50.79 17.89 51.54 16.75 52.5 15.79C53.46 14.83 54.58 14.08 55.86 13.54C57.14 13 58.51 12.73 59.97 12.73C61.11 12.73 62.21 12.89 63.27 13.21C64.33 13.53 65.29 13.98 66.15 14.56ZM82.5396 18.67C82.7996 18.67 83.0096 18.76 83.1696 18.94C83.3496 19.12 83.4396 19.34 83.4396 19.6V33.1C83.4396 33.34 83.3496 33.55 83.1696 33.73C82.9896 33.91 82.7796 34 82.5396 34C82.2796 34 82.0596 33.91 81.8796 33.73C81.7196 33.55 81.6396 33.34 81.6396 33.1V29.53L82.1496 29.29C82.1496 29.85 81.9896 30.42 81.6696 31C81.3696 31.58 80.9496 32.12 80.4096 32.62C79.8696 33.12 79.2296 33.53 78.4896 33.85C77.7696 34.15 76.9896 34.3 76.1496 34.3C74.7896 34.3 73.5696 33.95 72.4896 33.25C71.4296 32.55 70.5896 31.59 69.9696 30.37C69.3696 29.15 69.0696 27.78 69.0696 26.26C69.0696 24.7 69.3796 23.33 69.9996 22.15C70.6196 20.95 71.4596 20.01 72.5196 19.33C73.5796 18.65 74.7796 18.31 76.1196 18.31C76.9796 18.31 77.7796 18.46 78.5196 18.76C79.2796 19.06 79.9396 19.47 80.4996 19.99C81.0596 20.51 81.4896 21.11 81.7896 21.79C82.1096 22.45 82.2696 23.14 82.2696 23.86L81.6396 23.41V19.6C81.6396 19.34 81.7196 19.12 81.8796 18.94C82.0596 18.76 82.2796 18.67 82.5396 18.67ZM76.2996 32.62C77.3596 32.62 78.2996 32.35 79.1196 31.81C79.9396 31.25 80.5796 30.49 81.0396 29.53C81.5196 28.55 81.7596 27.46 81.7596 26.26C81.7596 25.08 81.5196 24.02 81.0396 23.08C80.5796 22.14 79.9396 21.39 79.1196 20.83C78.2996 20.27 77.3596 19.99 76.2996 19.99C75.2596 19.99 74.3196 20.26 73.4796 20.8C72.6596 21.34 72.0096 22.08 71.5296 23.02C71.0696 23.96 70.8396 25.04 70.8396 26.26C70.8396 27.46 71.0696 28.55 71.5296 29.53C72.0096 30.49 72.6596 31.25 73.4796 31.81C74.2996 32.35 75.2396 32.62 76.2996 32.62ZM95.063 18.55C96.303 18.55 97.363 18.88 98.243 19.54C99.123 20.18 99.723 21.14 100.043 22.42L99.623 22.54L99.803 22C100.063 21.4 100.493 20.84 101.093 20.32C101.713 19.78 102.413 19.35 103.193 19.03C103.973 18.71 104.763 18.55 105.563 18.55C106.823 18.55 107.833 18.82 108.593 19.36C109.373 19.9 109.933 20.63 110.273 21.55C110.633 22.45 110.813 23.47 110.813 24.61V33.1C110.813 33.34 110.723 33.55 110.543 33.73C110.383 33.91 110.173 34 109.913 34C109.653 34 109.433 33.91 109.253 33.73C109.093 33.55 109.013 33.34 109.013 33.1V24.7C109.013 23.88 108.883 23.13 108.623 22.45C108.363 21.77 107.953 21.23 107.393 20.83C106.833 20.43 106.083 20.23 105.143 20.23C104.323 20.23 103.533 20.43 102.773 20.83C102.033 21.23 101.423 21.77 100.943 22.45C100.483 23.13 100.253 23.88 100.253 24.7V33.1C100.253 33.34 100.163 33.55 99.983 33.73C99.823 33.91 99.613 34 99.353 34C99.093 34 98.873 33.91 98.693 33.73C98.533 33.55 98.453 33.34 98.453 33.1V24.61C98.453 23.79 98.333 23.05 98.093 22.39C97.853 21.73 97.463 21.21 96.923 20.83C96.383 20.43 95.653 20.23 94.733 20.23C93.913 20.23 93.133 20.43 92.393 20.83C91.673 21.21 91.083 21.73 90.623 22.39C90.183 23.05 89.963 23.79 89.963 24.61V33.1C89.963 33.34 89.873 33.55 89.693 33.73C89.513 33.91 89.303 34 89.063 34C88.783 34 88.563 33.91 88.403 33.73C88.243 33.55 88.163 33.34 88.163 33.1V19.66C88.163 19.42 88.243 19.21 88.403 19.03C88.583 18.85 88.803 18.76 89.063 18.76C89.323 18.76 89.533 18.85 89.693 19.03C89.873 19.21 89.963 19.42 89.963 19.66V22.45L89.153 23.56C89.213 22.96 89.403 22.36 89.723 21.76C90.063 21.16 90.503 20.62 91.043 20.14C91.583 19.66 92.193 19.28 92.873 19C93.573 18.7 94.303 18.55 95.063 18.55ZM122.456 34.3C120.916 34.3 119.556 33.97 118.376 33.31C117.196 32.65 116.276 31.73 115.616 30.55C114.956 29.37 114.626 27.99 114.626 26.41C114.626 24.71 114.956 23.26 115.616 22.06C116.296 20.86 117.166 19.94 118.226 19.3C119.306 18.64 120.446 18.31 121.646 18.31C122.526 18.31 123.376 18.47 124.196 18.79C125.036 19.09 125.776 19.55 126.416 20.17C127.076 20.77 127.596 21.51 127.976 22.39C128.376 23.27 128.596 24.29 128.636 25.45C128.616 25.69 128.516 25.9 128.336 26.08C128.156 26.24 127.946 26.32 127.706 26.32H115.676L115.316 24.7H127.136L126.746 25.06V24.46C126.666 23.52 126.366 22.72 125.846 22.06C125.326 21.4 124.696 20.9 123.956 20.56C123.216 20.22 122.446 20.05 121.646 20.05C121.046 20.05 120.426 20.17 119.786 20.41C119.166 20.65 118.596 21.03 118.076 21.55C117.576 22.05 117.166 22.7 116.846 23.5C116.526 24.28 116.366 25.21 116.366 26.29C116.366 27.47 116.606 28.54 117.086 29.5C117.566 30.46 118.256 31.22 119.156 31.78C120.076 32.34 121.166 32.62 122.426 32.62C123.126 32.62 123.756 32.52 124.316 32.32C124.876 32.12 125.366 31.86 125.786 31.54C126.206 31.2 126.556 30.85 126.836 30.49C127.056 30.31 127.276 30.22 127.496 30.22C127.696 30.22 127.866 30.3 128.006 30.46C128.166 30.62 128.246 30.8 128.246 31C128.246 31.24 128.146 31.45 127.946 31.63C127.346 32.35 126.566 32.98 125.606 33.52C124.646 34.04 123.596 34.3 122.456 34.3ZM133.389 34C133.109 34 132.889 33.91 132.729 33.73C132.569 33.55 132.489 33.34 132.489 33.1V19.66C132.489 19.42 132.569 19.21 132.729 19.03C132.909 18.85 133.129 18.76 133.389 18.76C133.649 18.76 133.859 18.85 134.019 19.03C134.199 19.21 134.289 19.42 134.289 19.66V24.16L133.839 24.25C133.899 23.55 134.069 22.86 134.349 22.18C134.649 21.48 135.049 20.84 135.549 20.26C136.049 19.68 136.639 19.21 137.319 18.85C138.019 18.49 138.799 18.31 139.659 18.31C140.019 18.31 140.369 18.39 140.709 18.55C141.049 18.69 141.219 18.93 141.219 19.27C141.219 19.57 141.139 19.8 140.979 19.96C140.819 20.12 140.629 20.2 140.409 20.2C140.229 20.2 140.029 20.15 139.809 20.05C139.609 19.95 139.339 19.9 138.999 19.9C138.439 19.9 137.879 20.07 137.319 20.41C136.759 20.73 136.249 21.17 135.789 21.73C135.329 22.29 134.959 22.92 134.679 23.62C134.419 24.3 134.289 24.99 134.289 25.69V33.1C134.289 33.34 134.199 33.55 134.019 33.73C133.839 33.91 133.629 34 133.389 34ZM156.251 18.67C156.511 18.67 156.721 18.76 156.881 18.94C157.061 19.12 157.151 19.34 157.151 19.6V33.1C157.151 33.34 157.061 33.55 156.881 33.73C156.701 33.91 156.491 34 156.251 34C155.991 34 155.771 33.91 155.591 33.73C155.431 33.55 155.351 33.34 155.351 33.1V29.53L155.861 29.29C155.861 29.85 155.701 30.42 155.381 31C155.081 31.58 154.661 32.12 154.121 32.62C153.581 33.12 152.941 33.53 152.201 33.85C151.481 34.15 150.701 34.3 149.861 34.3C148.501 34.3 147.281 33.95 146.201 33.25C145.141 32.55 144.301 31.59 143.681 30.37C143.081 29.15 142.781 27.78 142.781 26.26C142.781 24.7 143.091 23.33 143.711 22.15C144.331 20.95 145.171 20.01 146.231 19.33C147.291 18.65 148.491 18.31 149.831 18.31C150.691 18.31 151.491 18.46 152.231 18.76C152.991 19.06 153.651 19.47 154.211 19.99C154.771 20.51 155.201 21.11 155.501 21.79C155.821 22.45 155.981 23.14 155.981 23.86L155.351 23.41V19.6C155.351 19.34 155.431 19.12 155.591 18.94C155.771 18.76 155.991 18.67 156.251 18.67ZM150.011 32.62C151.071 32.62 152.011 32.35 152.831 31.81C153.651 31.25 154.291 30.49 154.751 29.53C155.231 28.55 155.471 27.46 155.471 26.26C155.471 25.08 155.231 24.02 154.751 23.08C154.291 22.14 153.651 21.39 152.831 20.83C152.011 20.27 151.071 19.99 150.011 19.99C148.971 19.99 148.031 20.26 147.191 20.8C146.371 21.34 145.721 22.08 145.241 23.02C144.781 23.96 144.551 25.04 144.551 26.26C144.551 27.46 144.781 28.55 145.241 29.53C145.721 30.49 146.371 31.25 147.191 31.81C148.011 32.35 148.951 32.62 150.011 32.62Z" fill="black"/>
<path d="M21.8506 17.2507H37.184C36.3215 15.0465 35.0041 13.1535 33.2318 11.5716C31.4595 9.98968 29.4228 8.87993 27.1215 8.24232L21.8506 17.2507ZM17.4423 21.084L25.109 7.85898C24.7576 7.7951 24.4062 7.74718 24.0548 7.71523C23.7034 7.68329 23.352 7.66732 23.0007 7.66732C20.8923 7.66732 18.9277 8.06662 17.1069 8.86523C15.2861 9.66385 13.6729 10.734 12.2673 12.0757L17.4423 21.084ZM8.14648 26.834H18.5923L10.9257 13.609C9.90343 14.9187 9.10482 16.3645 8.52982 17.9464C7.95482 19.5283 7.66732 21.213 7.66732 23.0007C7.66732 23.6715 7.70757 24.3187 7.78807 24.9422C7.86857 25.5658 7.98804 26.1964 8.14648 26.834ZM18.8798 37.759L24.0548 28.7507H8.81732C9.67982 30.9548 10.9978 32.8478 12.7714 34.4297C14.545 36.0116 16.5811 37.1214 18.8798 37.759ZM23.0007 38.334C25.109 38.334 27.0736 37.9347 28.8944 37.1361C30.7152 36.3375 32.3284 35.2673 33.734 33.9257L28.559 24.9173L20.8923 38.1423C21.2437 38.2062 21.5874 38.2541 21.9235 38.2861C22.2595 38.318 22.6186 38.334 23.0007 38.334ZM35.0756 32.3923C36.0979 31.0826 36.8965 29.6374 37.4715 28.0568C38.0465 26.4762 38.334 24.7908 38.334 23.0007C38.334 22.3298 38.2944 21.6833 38.2151 21.061C38.1359 20.4387 38.0158 19.8075 37.8548 19.1673H27.409L35.0756 32.3923ZM23.0007 42.1673C20.3812 42.1673 17.9055 41.6639 15.5736 40.657C13.2416 39.6501 11.2055 38.2765 9.46515 36.5362C7.72482 34.7958 6.35121 32.7597 5.34432 30.4277C4.33743 28.0958 3.83398 25.6201 3.83398 23.0007C3.83398 20.3493 4.33743 17.8659 5.34432 15.5506C6.35121 13.2352 7.72482 11.2068 9.46515 9.46515C11.2055 7.72354 13.2416 6.34993 15.5736 5.34432C17.9055 4.33871 20.3812 3.83526 23.0007 3.83398C25.652 3.83398 28.136 4.33743 30.4526 5.34432C32.7693 6.35121 34.7971 7.72482 36.5362 9.46515C38.2752 11.2055 39.6488 13.234 40.657 15.5506C41.6652 17.8672 42.1686 20.3505 42.1673 23.0007C42.1673 25.6201 41.6639 28.0958 40.657 30.4277C39.6501 32.7597 38.2765 34.7965 36.5362 36.5381C34.7958 38.2797 32.7673 39.6533 30.4507 40.6589C28.1341 41.6645 25.6508 42.1673 23.0007 42.1673Z" fill="#561C24"/>
</g>
<defs>
<clipPath id="clip0_350_2918">
<rect width="158" height="46" fill="white"/>
</clipPath>
</defs>
</svg>
