<svg width="135" height="46" viewBox="0 0 135 46" fill="none" xmlns="http://www.w3.org/2000/svg">
<g clip-path="url(#clip0_350_2903)">
<g clip-path="url(#clip1_350_2903)">
<path d="M23 0C10.2983 0 0 10.2983 0 23C0 35.7017 10.2983 46 23 46C35.7017 46 46 35.7017 46 23C46 10.2983 35.7017 0 23 0ZM13.3438 14.72C14.789 14.72 15.9064 15.7722 16.0367 17.02C16.169 18.1374 15.709 19.1226 14.4612 19.7148C13.8038 20.0426 13.5412 20.0445 13.409 19.8471C13.3438 19.7148 13.409 19.5845 13.5412 19.4522C14.7238 18.4671 14.7238 17.6774 14.5916 16.5619C14.5264 15.8374 14.0013 15.3774 13.4742 15.3774C11.1742 15.3774 7.889 20.5026 8.349 24.2497C8.54642 25.6948 9.40125 27.4045 11.2412 27.4045C11.8316 27.4045 12.4871 27.2071 13.0812 26.9445C14.0396 26.4385 14.6127 26.0437 15.1838 25.4112C15.0439 23.7149 16.5332 21.4897 18.7316 21.4897C19.7187 21.4897 20.5064 21.8826 20.5716 22.6071C20.7019 23.5922 19.849 23.7226 19.5864 23.7226C19.3238 23.7226 18.8619 23.6574 18.8619 23.3967C18.7967 23.1322 19.4542 23.2626 19.389 22.6723C19.3219 22.2774 18.929 22.1471 18.5342 22.1471C17.1542 22.1471 16.3664 24.0523 16.5619 25.2348C16.629 25.7619 16.8916 26.2871 17.4187 26.2871C17.8116 26.2871 18.4038 25.6929 18.6012 24.84C18.7316 24.2497 19.2587 23.8548 19.7187 23.8548C19.9142 23.8548 20.0445 23.92 20.1116 24.1826V24.4471C20.0464 24.7097 19.849 25.4974 19.9161 25.6948C19.9161 25.8271 19.9812 26.0226 20.2419 26.0226C20.4182 26.0226 21.0776 25.6776 21.7312 25.1428C21.9554 24.012 22.2161 22.655 22.2161 22.5419C22.2812 22.0819 22.4787 21.6219 23.3987 21.6219C23.5961 21.6219 23.7264 21.6871 23.7916 21.9497V22.2142L23.5309 23.3967C24.3838 22.2793 25.6335 21.4916 26.4212 21.4916C26.7509 21.4916 27.0135 21.6871 27.0135 22.0168C27.0135 22.2142 27.0135 22.5419 26.8812 22.8716C26.6187 23.5942 26.289 24.7116 26.0916 25.6967C26.0916 25.9593 26.1587 26.2219 26.4883 26.2219C26.818 26.2219 27.8013 25.8271 28.589 24.7767L28.6024 24.7691C28.5986 24.6388 28.589 24.5122 28.589 24.3819C28.589 23.5942 28.6561 22.9367 28.7883 22.4767C28.9187 21.9516 29.5761 21.4916 29.9709 21.4916C30.1683 21.4916 30.3638 21.6238 30.3638 21.8193C30.3638 21.8864 30.3638 22.0167 30.2987 22.0819C30.0361 22.9367 29.8387 23.7245 29.8387 24.5142C29.8387 24.9742 29.9038 25.6297 30.0342 26.0245C30.0342 26.0897 30.1012 26.1568 30.1683 26.1568C30.2987 26.1568 31.2187 25.3038 31.8742 24.1864C31.2838 23.7916 30.9542 23.1342 30.9542 22.3464C30.9542 20.9664 31.809 20.2438 32.5987 20.2438C33.2561 20.2438 33.7812 20.7038 33.7812 21.6238C33.7812 22.2142 33.5838 22.8697 33.2561 23.4638H33.4516C33.6601 23.4706 33.8676 23.4331 34.0606 23.3538C34.2535 23.2745 34.4274 23.1553 34.5709 23.0038C34.6319 22.9048 34.7214 22.8266 34.8277 22.7796C35.4698 21.965 36.4186 21.3613 37.5302 21.3613C38.4502 21.3613 39.3013 21.7542 39.3683 22.4767C39.4987 23.4638 38.6438 23.6613 38.3812 23.6613L38.3774 23.6574C38.1129 23.6574 37.6548 23.5903 37.6548 23.3277C37.6548 23.0652 38.2471 23.1974 38.18 22.6071C38.1148 22.2122 37.72 22.08 37.3252 22.08C36.0103 22.08 35.1593 23.7877 35.3548 25.1677C35.42 25.6948 35.6826 26.2852 36.2078 26.2852C36.6026 26.2852 37.1948 25.6948 37.4574 24.84C37.5877 24.3148 38.1148 23.8548 38.5748 23.8548C38.7722 23.8548 38.9007 23.92 38.9677 24.1826C38.9677 24.3148 38.9677 24.5774 38.7052 25.4322C38.3793 26.0226 38.3774 26.3522 38.4426 26.6148C38.5077 27.14 38.7703 27.5348 39.0348 27.7322C39.1 27.7974 39.1652 27.9277 39.1652 27.9277C39.1652 28.06 39.1 28.1922 38.9026 28.1922C38.8374 28.1922 38.7722 28.1922 38.7052 28.1252C37.72 27.7322 37.3252 27.0748 37.1929 26.4174C36.8 26.8774 36.34 27.14 35.8129 27.14C34.96 27.14 34.1071 26.3522 33.9729 25.3652C33.9348 24.9451 33.9837 24.5216 34.1167 24.1212C33.7276 24.3704 33.3078 24.5103 32.9226 24.5103H32.5967C31.74 25.76 30.82 26.6148 30.1626 27.0077C29.9392 27.1264 29.6926 27.1944 29.44 27.2071C29.3097 27.2071 29.1122 27.14 29.0471 27.0077C28.865 26.7164 28.7481 26.2564 28.6772 25.7293C27.7552 26.7394 26.4826 27.2722 25.8922 27.2722C25.2348 27.2722 24.8419 26.8774 24.7767 26.2181V25.4974C24.9722 24.0523 25.4993 23.1974 25.4993 22.9348C25.4975 22.9002 25.4831 22.8673 25.4587 22.8426C25.4343 22.8179 25.4017 22.803 25.3671 22.8007C24.9071 22.8007 23.3967 24.38 23.1322 25.4322L22.9348 26.2852C22.8045 26.8774 22.2122 27.2722 21.8193 27.2722C21.6219 27.2722 21.4897 27.2052 21.4245 26.9426V26.68L21.5127 26.2334C20.6789 26.8276 19.8452 27.2071 19.4522 27.2071C18.8619 27.2071 18.5323 26.8774 18.4671 26.4174C18.0723 26.9426 17.6142 27.2071 17.0219 27.2071C16.3472 27.2071 15.6879 26.7471 15.3697 26.0705C14.9021 26.5976 14.3673 27.1304 13.7367 27.5348C12.8167 28.1271 11.7664 28.5871 10.5167 28.5871C9.40125 28.5871 8.41417 27.9948 7.889 27.4697C7.09933 26.7471 6.64125 25.6297 6.57417 24.5774C6.18125 21.3574 8.15158 17.2174 11.1742 15.3774C11.8987 14.9845 12.6212 14.72 13.3438 14.72ZM32.0697 21.0277C31.8703 21.0277 31.74 21.3574 31.74 21.6852C31.74 22.2103 32.0026 22.8026 32.3322 23.1322C32.4623 22.7741 32.5284 22.3959 32.5278 22.0148C32.5278 21.3574 32.2671 21.0277 32.0697 21.0277Z" fill="#561C24"/>
</g>
<path d="M66.15 14.56C66.39 14.72 66.53 14.93 66.57 15.19C66.61 15.43 66.55 15.67 66.39 15.91C66.25 16.09 66.07 16.19 65.85 16.21C65.63 16.23 65.42 16.19 65.22 16.09C64.46 15.59 63.64 15.2 62.76 14.92C61.9 14.64 60.97 14.5 59.97 14.5C58.75 14.5 57.61 14.72 56.55 15.16C55.51 15.58 54.6 16.2 53.82 17.02C53.04 17.82 52.43 18.77 51.99 19.87C51.57 20.97 51.36 22.18 51.36 23.5C51.36 24.86 51.58 26.1 52.02 27.22C52.46 28.32 53.07 29.27 53.85 30.07C54.65 30.87 55.57 31.48 56.61 31.9C57.65 32.32 58.77 32.53 59.97 32.53C60.95 32.53 61.87 32.39 62.73 32.11C63.61 31.83 64.43 31.45 65.19 30.97C65.39 30.85 65.6 30.81 65.82 30.85C66.06 30.87 66.25 30.98 66.39 31.18C66.57 31.4 66.63 31.64 66.57 31.9C66.53 32.14 66.4 32.33 66.18 32.47C65.68 32.79 65.09 33.09 64.41 33.37C63.73 33.65 63.01 33.87 62.25 34.03C61.49 34.21 60.73 34.3 59.97 34.3C58.53 34.3 57.18 34.04 55.92 33.52C54.66 33 53.54 32.27 52.56 31.33C51.58 30.37 50.81 29.23 50.25 27.91C49.71 26.59 49.44 25.12 49.44 23.5C49.44 21.94 49.71 20.51 50.25 19.21C50.79 17.89 51.54 16.75 52.5 15.79C53.46 14.83 54.58 14.08 55.86 13.54C57.14 13 58.51 12.73 59.97 12.73C61.11 12.73 62.21 12.89 63.27 13.21C64.33 13.53 65.29 13.98 66.15 14.56ZM82.5396 18.67C82.7996 18.67 83.0096 18.76 83.1696 18.94C83.3496 19.12 83.4396 19.34 83.4396 19.6V33.1C83.4396 33.34 83.3496 33.55 83.1696 33.73C82.9896 33.91 82.7796 34 82.5396 34C82.2796 34 82.0596 33.91 81.8796 33.73C81.7196 33.55 81.6396 33.34 81.6396 33.1V29.53L82.1496 29.29C82.1496 29.85 81.9896 30.42 81.6696 31C81.3696 31.58 80.9496 32.12 80.4096 32.62C79.8696 33.12 79.2296 33.53 78.4896 33.85C77.7696 34.15 76.9896 34.3 76.1496 34.3C74.7896 34.3 73.5696 33.95 72.4896 33.25C71.4296 32.55 70.5896 31.59 69.9696 30.37C69.3696 29.15 69.0696 27.78 69.0696 26.26C69.0696 24.7 69.3796 23.33 69.9996 22.15C70.6196 20.95 71.4596 20.01 72.5196 19.33C73.5796 18.65 74.7796 18.31 76.1196 18.31C76.9796 18.31 77.7796 18.46 78.5196 18.76C79.2796 19.06 79.9396 19.47 80.4996 19.99C81.0596 20.51 81.4896 21.11 81.7896 21.79C82.1096 22.45 82.2696 23.14 82.2696 23.86L81.6396 23.41V19.6C81.6396 19.34 81.7196 19.12 81.8796 18.94C82.0596 18.76 82.2796 18.67 82.5396 18.67ZM76.2996 32.62C77.3596 32.62 78.2996 32.35 79.1196 31.81C79.9396 31.25 80.5796 30.49 81.0396 29.53C81.5196 28.55 81.7596 27.46 81.7596 26.26C81.7596 25.08 81.5196 24.02 81.0396 23.08C80.5796 22.14 79.9396 21.39 79.1196 20.83C78.2996 20.27 77.3596 19.99 76.2996 19.99C75.2596 19.99 74.3196 20.26 73.4796 20.8C72.6596 21.34 72.0096 22.08 71.5296 23.02C71.0696 23.96 70.8396 25.04 70.8396 26.26C70.8396 27.46 71.0696 28.55 71.5296 29.53C72.0096 30.49 72.6596 31.25 73.4796 31.81C74.2996 32.35 75.2396 32.62 76.2996 32.62ZM95.393 18.31C96.713 18.31 97.763 18.58 98.543 19.12C99.343 19.64 99.913 20.36 100.253 21.28C100.613 22.18 100.793 23.18 100.793 24.28V33.1C100.793 33.34 100.703 33.55 100.523 33.73C100.343 33.91 100.133 34 99.893 34C99.613 34 99.393 33.91 99.233 33.73C99.073 33.55 98.993 33.34 98.993 33.1V24.37C98.993 23.57 98.863 22.84 98.603 22.18C98.343 21.52 97.913 20.99 97.313 20.59C96.733 20.19 95.963 19.99 95.003 19.99C94.143 19.99 93.323 20.19 92.543 20.59C91.783 20.99 91.163 21.52 90.683 22.18C90.203 22.84 89.963 23.57 89.963 24.37V33.1C89.963 33.34 89.873 33.55 89.693 33.73C89.513 33.91 89.303 34 89.063 34C88.783 34 88.563 33.91 88.403 33.73C88.243 33.55 88.163 33.34 88.163 33.1V19.66C88.163 19.42 88.243 19.21 88.403 19.03C88.583 18.85 88.803 18.76 89.063 18.76C89.323 18.76 89.533 18.85 89.693 19.03C89.873 19.21 89.963 19.42 89.963 19.66V22.18L89.273 23.26C89.313 22.62 89.513 22.01 89.873 21.43C90.253 20.83 90.733 20.3 91.313 19.84C91.893 19.36 92.533 18.99 93.233 18.73C93.953 18.45 94.673 18.31 95.393 18.31ZM105 18.34C105.16 18.34 105.32 18.39 105.48 18.49C105.64 18.59 105.76 18.74 105.84 18.94L111.09 31.42L110.7 31.66L116.07 18.94C116.23 18.54 116.52 18.35 116.94 18.37C117.14 18.37 117.33 18.44 117.51 18.58C117.69 18.7 117.78 18.88 117.78 19.12C117.78 19.24 117.76 19.34 117.72 19.42C117.7 19.48 117.68 19.55 117.66 19.63L111.78 33.43C111.62 33.79 111.35 33.98 110.97 34C110.79 34.02 110.61 33.98 110.43 33.88C110.27 33.76 110.15 33.61 110.07 33.43L104.16 19.63C104.14 19.59 104.12 19.53 104.1 19.45C104.08 19.37 104.07 19.29 104.07 19.21C104.07 18.99 104.15 18.79 104.31 18.61C104.47 18.43 104.7 18.34 105 18.34ZM133.751 18.67C134.011 18.67 134.221 18.76 134.381 18.94C134.561 19.12 134.651 19.34 134.651 19.6V33.1C134.651 33.34 134.561 33.55 134.381 33.73C134.201 33.91 133.991 34 133.751 34C133.491 34 133.271 33.91 133.091 33.73C132.931 33.55 132.851 33.34 132.851 33.1V29.53L133.361 29.29C133.361 29.85 133.201 30.42 132.881 31C132.581 31.58 132.161 32.12 131.621 32.62C131.081 33.12 130.441 33.53 129.701 33.85C128.981 34.15 128.201 34.3 127.361 34.3C126.001 34.3 124.781 33.95 123.701 33.25C122.641 32.55 121.801 31.59 121.181 30.37C120.581 29.15 120.281 27.78 120.281 26.26C120.281 24.7 120.591 23.33 121.211 22.15C121.831 20.95 122.671 20.01 123.731 19.33C124.791 18.65 125.991 18.31 127.331 18.31C128.191 18.31 128.991 18.46 129.731 18.76C130.491 19.06 131.151 19.47 131.711 19.99C132.271 20.51 132.701 21.11 133.001 21.79C133.321 22.45 133.481 23.14 133.481 23.86L132.851 23.41V19.6C132.851 19.34 132.931 19.12 133.091 18.94C133.271 18.76 133.491 18.67 133.751 18.67ZM127.511 32.62C128.571 32.62 129.511 32.35 130.331 31.81C131.151 31.25 131.791 30.49 132.251 29.53C132.731 28.55 132.971 27.46 132.971 26.26C132.971 25.08 132.731 24.02 132.251 23.08C131.791 22.14 131.151 21.39 130.331 20.83C129.511 20.27 128.571 19.99 127.511 19.99C126.471 19.99 125.531 20.26 124.691 20.8C123.871 21.34 123.221 22.08 122.741 23.02C122.281 23.96 122.051 25.04 122.051 26.26C122.051 27.46 122.281 28.55 122.741 29.53C123.221 30.49 123.871 31.25 124.691 31.81C125.511 32.35 126.451 32.62 127.511 32.62Z" fill="black"/>
</g>
<defs>
<clipPath id="clip0_350_2903">
<rect width="135" height="46" fill="white"/>
</clipPath>
<clipPath id="clip1_350_2903">
<rect width="46" height="46" fill="white"/>
</clipPath>
</defs>
</svg>
