<svg width="101" height="46" viewBox="0 0 101 46" fill="none" xmlns="http://www.w3.org/2000/svg">
<g clip-path="url(#clip0_350_2927)">
<path d="M66.15 14.56C66.39 14.72 66.53 14.93 66.57 15.19C66.61 15.43 66.55 15.67 66.39 15.91C66.25 16.09 66.07 16.19 65.85 16.21C65.63 16.23 65.42 16.19 65.22 16.09C64.46 15.59 63.64 15.2 62.76 14.92C61.9 14.64 60.97 14.5 59.97 14.5C58.75 14.5 57.61 14.72 56.55 15.16C55.51 15.58 54.6 16.2 53.82 17.02C53.04 17.82 52.43 18.77 51.99 19.87C51.57 20.97 51.36 22.18 51.36 23.5C51.36 24.86 51.58 26.1 52.02 27.22C52.46 28.32 53.07 29.27 53.85 30.07C54.65 30.87 55.57 31.48 56.61 31.9C57.65 32.32 58.77 32.53 59.97 32.53C60.95 32.53 61.87 32.39 62.73 32.11C63.61 31.83 64.43 31.45 65.19 30.97C65.39 30.85 65.6 30.81 65.82 30.85C66.06 30.87 66.25 30.98 66.39 31.18C66.57 31.4 66.63 31.64 66.57 31.9C66.53 32.14 66.4 32.33 66.18 32.47C65.68 32.79 65.09 33.09 64.41 33.37C63.73 33.65 63.01 33.87 62.25 34.03C61.49 34.21 60.73 34.3 59.97 34.3C58.53 34.3 57.18 34.04 55.92 33.52C54.66 33 53.54 32.27 52.56 31.33C51.58 30.37 50.81 29.23 50.25 27.91C49.71 26.59 49.44 25.12 49.44 23.5C49.44 21.94 49.71 20.51 50.25 19.21C50.79 17.89 51.54 16.75 52.5 15.79C53.46 14.83 54.58 14.08 55.86 13.54C57.14 13 58.51 12.73 59.97 12.73C61.11 12.73 62.21 12.89 63.27 13.21C64.33 13.53 65.29 13.98 66.15 14.56ZM76.2096 34.3C74.6896 34.32 73.3696 34.08 72.2496 33.58C71.1296 33.08 70.0596 32.33 69.0396 31.33C68.9396 31.25 68.8496 31.15 68.7696 31.03C68.7096 30.91 68.6796 30.77 68.6796 30.61C68.6796 30.37 68.7696 30.15 68.9496 29.95C69.1496 29.75 69.3696 29.65 69.6096 29.65C69.8496 29.65 70.0696 29.75 70.2696 29.95C71.0496 30.79 71.9296 31.43 72.9096 31.87C73.9096 32.31 74.9796 32.53 76.1196 32.53C77.0796 32.53 77.9296 32.38 78.6696 32.08C79.4296 31.78 80.0296 31.35 80.4696 30.79C80.9096 30.23 81.1296 29.58 81.1296 28.84C81.1296 27.92 80.8796 27.18 80.3796 26.62C79.8796 26.04 79.2196 25.57 78.3996 25.21C77.5796 24.83 76.6696 24.49 75.6696 24.19C74.8496 23.95 74.0696 23.68 73.3296 23.38C72.5896 23.06 71.9296 22.68 71.3496 22.24C70.7696 21.78 70.3196 21.22 69.9996 20.56C69.6796 19.9 69.5196 19.1 69.5196 18.16C69.5196 17.1 69.7996 16.16 70.3596 15.34C70.9196 14.52 71.7096 13.88 72.7296 13.42C73.7696 12.94 74.9696 12.7 76.3296 12.7C77.5096 12.7 78.6396 12.9 79.7196 13.3C80.8196 13.7 81.6896 14.29 82.3296 15.07C82.6296 15.39 82.7796 15.68 82.7796 15.94C82.7796 16.14 82.6796 16.34 82.4796 16.54C82.2796 16.74 82.0596 16.84 81.8196 16.84C81.6196 16.84 81.4496 16.77 81.3096 16.63C80.9696 16.21 80.5396 15.84 80.0196 15.52C79.4996 15.18 78.9196 14.92 78.2796 14.74C77.6596 14.56 77.0096 14.47 76.3296 14.47C75.3896 14.47 74.5396 14.62 73.7796 14.92C73.0396 15.2 72.4496 15.61 72.0096 16.15C71.5896 16.69 71.3796 17.34 71.3796 18.1C71.3796 18.94 71.6196 19.63 72.0996 20.17C72.5796 20.71 73.2096 21.16 73.9896 21.52C74.7696 21.86 75.5996 22.18 76.4796 22.48C77.3396 22.72 78.1596 23 78.9396 23.32C79.7396 23.62 80.4396 24 81.0396 24.46C81.6596 24.92 82.1396 25.5 82.4796 26.2C82.8396 26.9 83.0196 27.78 83.0196 28.84C83.0196 29.86 82.7296 30.78 82.1496 31.6C81.5696 32.42 80.7696 33.07 79.7496 33.55C78.7496 34.03 77.5696 34.28 76.2096 34.3ZM93.0553 34.3C91.5353 34.32 90.2153 34.08 89.0953 33.58C87.9753 33.08 86.9053 32.33 85.8853 31.33C85.7853 31.25 85.6953 31.15 85.6153 31.03C85.5553 30.91 85.5253 30.77 85.5253 30.61C85.5253 30.37 85.6153 30.15 85.7953 29.95C85.9953 29.75 86.2153 29.65 86.4553 29.65C86.6953 29.65 86.9153 29.75 87.1153 29.95C87.8953 30.79 88.7753 31.43 89.7553 31.87C90.7553 32.31 91.8253 32.53 92.9653 32.53C93.9253 32.53 94.7753 32.38 95.5153 32.08C96.2753 31.78 96.8753 31.35 97.3153 30.79C97.7553 30.23 97.9753 29.58 97.9753 28.84C97.9753 27.92 97.7253 27.18 97.2253 26.62C96.7253 26.04 96.0653 25.57 95.2453 25.21C94.4253 24.83 93.5153 24.49 92.5153 24.19C91.6953 23.95 90.9153 23.68 90.1753 23.38C89.4353 23.06 88.7753 22.68 88.1953 22.24C87.6153 21.78 87.1653 21.22 86.8453 20.56C86.5253 19.9 86.3653 19.1 86.3653 18.16C86.3653 17.1 86.6453 16.16 87.2053 15.34C87.7653 14.52 88.5553 13.88 89.5753 13.42C90.6153 12.94 91.8153 12.7 93.1753 12.7C94.3553 12.7 95.4853 12.9 96.5653 13.3C97.6653 13.7 98.5353 14.29 99.1753 15.07C99.4753 15.39 99.6253 15.68 99.6253 15.94C99.6253 16.14 99.5253 16.34 99.3253 16.54C99.1253 16.74 98.9053 16.84 98.6653 16.84C98.4653 16.84 98.2953 16.77 98.1553 16.63C97.8153 16.21 97.3853 15.84 96.8653 15.52C96.3453 15.18 95.7653 14.92 95.1253 14.74C94.5053 14.56 93.8553 14.47 93.1753 14.47C92.2353 14.47 91.3853 14.62 90.6253 14.92C89.8853 15.2 89.2953 15.61 88.8553 16.15C88.4353 16.69 88.2253 17.34 88.2253 18.1C88.2253 18.94 88.4653 19.63 88.9453 20.17C89.4253 20.71 90.0553 21.16 90.8353 21.52C91.6153 21.86 92.4453 22.18 93.3253 22.48C94.1853 22.72 95.0053 23 95.7853 23.32C96.5853 23.62 97.2853 24 97.8853 24.46C98.5053 24.92 98.9853 25.5 99.3253 26.2C99.6853 26.9 99.8653 27.78 99.8653 28.84C99.8653 29.86 99.5753 30.78 98.9953 31.6C98.4153 32.42 97.6153 33.07 96.5953 33.55C95.5953 34.03 94.4153 34.28 93.0553 34.3Z" fill="black"/>
<path d="M5.75 3.83398L8.7745 38.0158L23 42.1673L37.3137 38.0177L40.25 3.83398H5.75ZM31.2417 32.0512L23.0134 34.3588H23L14.7641 32.0512L14.1948 25.9811H18.2352L18.5227 28.9059L22.9981 30.1307L27.4831 28.904L27.9527 23.0582H14.0185L13.6601 19.2133H28.3034L28.6369 15.3685H13.271L12.9337 11.5237H33.0702L31.2417 32.0512Z" fill="#561C24"/>
</g>
<defs>
<clipPath id="clip0_350_2927">
<rect width="101" height="46" fill="white"/>
</clipPath>
</defs>
</svg>
