<svg width="135" height="46" viewBox="0 0 135 46" fill="none" xmlns="http://www.w3.org/2000/svg">
<g clip-path="url(#clip0_350_2913)">
<path d="M51.75 34C51.47 34 51.24 33.91 51.06 33.73C50.9 33.55 50.82 33.34 50.82 33.1V13.9C50.82 13.66 50.91 13.45 51.09 13.27C51.27 13.09 51.48 13 51.72 13H62.64C62.9 13 63.11 13.09 63.27 13.27C63.45 13.43 63.54 13.64 63.54 13.9C63.54 14.14 63.45 14.35 63.27 14.53C63.11 14.69 62.9 14.77 62.64 14.77H52.53L52.65 14.59V22.57L52.5 22.3H61.29C61.55 22.3 61.76 22.39 61.92 22.57C62.1 22.73 62.19 22.93 62.19 23.17C62.19 23.43 62.1 23.64 61.92 23.8C61.76 23.96 61.55 24.04 61.29 24.04H52.44L52.65 23.8V33.1C52.65 33.34 52.56 33.55 52.38 33.73C52.22 33.91 52.01 34 51.75 34ZM69.1022 33.1C69.1022 33.34 69.0122 33.55 68.8322 33.73C68.6522 33.91 68.4422 34 68.2022 34C67.9422 34 67.7222 33.91 67.5422 33.73C67.3822 33.55 67.3022 33.34 67.3022 33.1V19.3C67.3022 19.06 67.3822 18.85 67.5422 18.67C67.7222 18.49 67.9422 18.4 68.2022 18.4C68.4622 18.4 68.6722 18.49 68.8322 18.67C69.0122 18.85 69.1022 19.06 69.1022 19.3V33.1ZM68.2022 16.39C67.7822 16.39 67.4622 16.3 67.2422 16.12C67.0422 15.92 66.9422 15.64 66.9422 15.28V14.98C66.9422 14.62 67.0522 14.35 67.2722 14.17C67.5122 13.97 67.8322 13.87 68.2322 13.87C68.6122 13.87 68.9022 13.97 69.1022 14.17C69.3222 14.35 69.4322 14.62 69.4322 14.98V15.28C69.4322 15.64 69.3222 15.92 69.1022 16.12C68.9022 16.3 68.6022 16.39 68.2022 16.39ZM80.1682 18.31C81.0682 18.31 81.8982 18.47 82.6582 18.79C83.4182 19.09 84.0782 19.49 84.6382 19.99C85.2182 20.47 85.6682 20.99 85.9882 21.55C86.3082 22.09 86.4682 22.61 86.4682 23.11L85.9582 22.39V19.6C85.9582 19.34 86.0382 19.12 86.1982 18.94C86.3782 18.76 86.5982 18.67 86.8582 18.67C87.1382 18.67 87.3582 18.76 87.5182 18.94C87.6782 19.12 87.7582 19.34 87.7582 19.6V32.59C87.7582 34.19 87.4282 35.54 86.7682 36.64C86.1082 37.74 85.2082 38.57 84.0682 39.13C82.9482 39.71 81.6682 40 80.2282 40C79.5282 40 78.7882 39.91 78.0082 39.73C77.2482 39.55 76.5882 39.32 76.0282 39.04C75.4882 38.76 75.1882 38.47 75.1282 38.17C74.9682 37.99 74.8882 37.81 74.8882 37.63C74.9082 37.47 74.9982 37.33 75.1582 37.21C75.3582 37.07 75.5682 37.05 75.7882 37.15C76.0082 37.27 76.3382 37.42 76.7782 37.6C76.9782 37.66 77.2482 37.75 77.5882 37.87C77.9282 37.99 78.3282 38.09 78.7882 38.17C79.2682 38.27 79.7682 38.32 80.2882 38.32C82.0882 38.32 83.4782 37.8 84.4582 36.76C85.4582 35.74 85.9582 34.39 85.9582 32.71V29.83L86.2882 29.92C86.1082 30.64 85.8082 31.27 85.3882 31.81C84.9882 32.35 84.5082 32.81 83.9482 33.19C83.3882 33.55 82.7782 33.82 82.1182 34C81.4782 34.2 80.8382 34.3 80.1982 34.3C78.8182 34.3 77.5782 33.95 76.4782 33.25C75.3782 32.55 74.4982 31.6 73.8382 30.4C73.1982 29.2 72.8782 27.83 72.8782 26.29C72.8782 24.77 73.1982 23.41 73.8382 22.21C74.4982 20.99 75.3682 20.04 76.4482 19.36C77.5482 18.66 78.7882 18.31 80.1682 18.31ZM80.3782 19.99C79.2782 19.99 78.2882 20.27 77.4082 20.83C76.5482 21.37 75.8682 22.12 75.3682 23.08C74.8882 24.02 74.6482 25.09 74.6482 26.29C74.6482 27.49 74.8882 28.57 75.3682 29.53C75.8682 30.49 76.5482 31.25 77.4082 31.81C78.2882 32.35 79.2782 32.62 80.3782 32.62C81.4782 32.62 82.4582 32.35 83.3182 31.81C84.1782 31.27 84.8582 30.53 85.3582 29.59C85.8582 28.63 86.1082 27.53 86.1082 26.29C86.1082 25.05 85.8582 23.96 85.3582 23.02C84.8582 22.06 84.1782 21.32 83.3182 20.8C82.4582 20.26 81.4782 19.99 80.3782 19.99ZM99.3989 18.55C100.639 18.55 101.699 18.88 102.579 19.54C103.459 20.18 104.059 21.14 104.379 22.42L103.959 22.54L104.139 22C104.399 21.4 104.829 20.84 105.429 20.32C106.049 19.78 106.749 19.35 107.529 19.03C108.309 18.71 109.099 18.55 109.899 18.55C111.159 18.55 112.169 18.82 112.929 19.36C113.709 19.9 114.269 20.63 114.609 21.55C114.969 22.45 115.149 23.47 115.149 24.61V33.1C115.149 33.34 115.059 33.55 114.879 33.73C114.719 33.91 114.509 34 114.249 34C113.989 34 113.769 33.91 113.589 33.73C113.429 33.55 113.349 33.34 113.349 33.1V24.7C113.349 23.88 113.219 23.13 112.959 22.45C112.699 21.77 112.289 21.23 111.729 20.83C111.169 20.43 110.419 20.23 109.479 20.23C108.659 20.23 107.869 20.43 107.109 20.83C106.369 21.23 105.759 21.77 105.279 22.45C104.819 23.13 104.589 23.88 104.589 24.7V33.1C104.589 33.34 104.499 33.55 104.319 33.73C104.159 33.91 103.949 34 103.689 34C103.429 34 103.209 33.91 103.029 33.73C102.869 33.55 102.789 33.34 102.789 33.1V24.61C102.789 23.79 102.669 23.05 102.429 22.39C102.189 21.73 101.799 21.21 101.259 20.83C100.719 20.43 99.9889 20.23 99.0689 20.23C98.2489 20.23 97.4689 20.43 96.7289 20.83C96.0089 21.21 95.4189 21.73 94.9589 22.39C94.5189 23.05 94.2989 23.79 94.2989 24.61V33.1C94.2989 33.34 94.2089 33.55 94.0289 33.73C93.8489 33.91 93.6389 34 93.3989 34C93.1189 34 92.8989 33.91 92.7389 33.73C92.5789 33.55 92.4989 33.34 92.4989 33.1V19.66C92.4989 19.42 92.5789 19.21 92.7389 19.03C92.9189 18.85 93.1389 18.76 93.3989 18.76C93.6589 18.76 93.8689 18.85 94.0289 19.03C94.2089 19.21 94.2989 19.42 94.2989 19.66V22.45L93.4889 23.56C93.5489 22.96 93.7389 22.36 94.0589 21.76C94.3989 21.16 94.8389 20.62 95.3789 20.14C95.9189 19.66 96.5289 19.28 97.2089 19C97.9089 18.7 98.6389 18.55 99.3989 18.55ZM132.432 18.67C132.692 18.67 132.902 18.76 133.062 18.94C133.242 19.12 133.332 19.34 133.332 19.6V33.1C133.332 33.34 133.242 33.55 133.062 33.73C132.882 33.91 132.672 34 132.432 34C132.172 34 131.952 33.91 131.772 33.73C131.612 33.55 131.532 33.34 131.532 33.1V29.53L132.042 29.29C132.042 29.85 131.882 30.42 131.562 31C131.262 31.58 130.842 32.12 130.302 32.62C129.762 33.12 129.122 33.53 128.382 33.85C127.662 34.15 126.882 34.3 126.042 34.3C124.682 34.3 123.462 33.95 122.382 33.25C121.322 32.55 120.482 31.59 119.862 30.37C119.262 29.15 118.962 27.78 118.962 26.26C118.962 24.7 119.272 23.33 119.892 22.15C120.512 20.95 121.352 20.01 122.412 19.33C123.472 18.65 124.672 18.31 126.012 18.31C126.872 18.31 127.672 18.46 128.412 18.76C129.172 19.06 129.832 19.47 130.392 19.99C130.952 20.51 131.382 21.11 131.682 21.79C132.002 22.45 132.162 23.14 132.162 23.86L131.532 23.41V19.6C131.532 19.34 131.612 19.12 131.772 18.94C131.952 18.76 132.172 18.67 132.432 18.67ZM126.192 32.62C127.252 32.62 128.192 32.35 129.012 31.81C129.832 31.25 130.472 30.49 130.932 29.53C131.412 28.55 131.652 27.46 131.652 26.26C131.652 25.08 131.412 24.02 130.932 23.08C130.472 22.14 129.832 21.39 129.012 20.83C128.192 20.27 127.252 19.99 126.192 19.99C125.152 19.99 124.212 20.26 123.372 20.8C122.552 21.34 121.902 22.08 121.422 23.02C120.962 23.96 120.732 25.04 120.732 26.26C120.732 27.46 120.962 28.55 121.422 29.53C121.902 30.49 122.552 31.25 123.372 31.81C124.192 32.35 125.132 32.62 126.192 32.62Z" fill="black"/>
<path fill-rule="evenodd" clip-rule="evenodd" d="M16.6108 18.0499C15.9607 18.0499 15.3169 18.178 14.7163 18.4268C14.1156 18.6756 13.5698 19.0402 13.1101 19.4999C12.6504 19.9597 12.2857 20.5054 12.0369 21.1061C11.7881 21.7067 11.6601 22.3505 11.6601 23.0007C11.6601 23.6508 11.7881 24.2946 12.0369 24.8952C12.2857 25.4959 12.6504 26.0416 13.1101 26.5014C13.5698 26.9611 14.1156 27.3258 14.7163 27.5745C15.3169 27.8233 15.9607 27.9514 16.6108 27.9514H21.5616V23.1003C21.5608 23.0339 21.5608 22.9674 21.5616 22.901V18.0499H16.6108ZM21.5616 15.1749H16.6108C15.2976 15.1749 14.0381 14.6532 13.1094 13.7246C12.1808 12.796 11.6591 11.5365 11.6591 10.2232C11.6591 8.90992 12.1808 7.65043 13.1094 6.72181C14.0381 5.79318 15.2976 5.27148 16.6108 5.27148H21.5616V15.1749ZM24.4366 5.27148V15.1749H29.3873C30.6837 15.1494 31.9184 14.6165 32.8262 13.6906C33.7341 12.7648 34.2426 11.5198 34.2426 10.2232C34.2426 8.92654 33.7341 7.68159 32.8262 6.75574C31.9184 5.8299 30.6837 5.29699 29.3873 5.27148H24.4366ZM29.3873 18.048C28.0878 18.0478 26.8403 18.5586 25.9141 19.4701C24.9879 20.3817 24.4572 21.6208 24.4366 22.9202V23.0792C24.4525 24.0548 24.7562 25.004 25.3098 25.8074C25.8633 26.6109 26.642 27.2329 27.5479 27.5953C28.4538 27.9577 29.4466 28.0444 30.4016 27.8443C31.3566 27.6443 32.2312 27.1666 32.9155 26.4711C33.5998 25.7756 34.0634 24.8934 34.248 23.9354C34.4326 22.9773 34.33 21.986 33.953 21.086C33.5761 20.1861 32.9416 19.4176 32.1293 18.8771C31.317 18.3366 30.363 18.0481 29.3873 18.048ZM16.6108 30.8264C15.6312 30.826 14.6735 31.1162 13.8588 31.6601C13.044 32.2041 12.409 32.9775 12.0338 33.8824C11.6587 34.7874 11.5603 35.7833 11.7512 36.7441C11.9421 37.705 12.4136 38.5876 13.1062 39.2805C13.7987 39.9733 14.6812 40.4452 15.642 40.6364C16.6028 40.8277 17.5987 40.7297 18.5038 40.3549C19.4089 39.9801 20.1825 39.3453 20.7268 38.5308C21.2711 37.7163 21.5616 36.7587 21.5616 35.7791V30.8264H16.6108Z" fill="#561C24"/>
</g>
<defs>
<clipPath id="clip0_350_2913">
<rect width="135" height="46" fill="white"/>
</clipPath>
</defs>
</svg>
