<svg width="85" height="46" viewBox="0 0 85 46" fill="none" xmlns="http://www.w3.org/2000/svg">
<g clip-path="url(#clip0_350_2950)">
<path d="M60.24 34.3C58.7 34.3 57.27 34.03 55.95 33.49C54.63 32.95 53.48 32.2 52.5 31.24C51.54 30.26 50.79 29.11 50.25 27.79C49.71 26.47 49.44 25.04 49.44 23.5C49.44 21.96 49.71 20.53 50.25 19.21C50.79 17.89 51.54 16.75 52.5 15.79C53.48 14.81 54.63 14.05 55.95 13.51C57.27 12.97 58.7 12.7 60.24 12.7C61.3 12.7 62.32 12.83 63.3 13.09C64.3 13.33 65.19 13.7 65.97 14.2C66.11 14.3 66.21 14.42 66.27 14.56C66.35 14.68 66.39 14.81 66.39 14.95C66.39 15.23 66.3 15.46 66.12 15.64C65.94 15.8 65.75 15.88 65.55 15.88C65.45 15.88 65.35 15.87 65.25 15.85C65.17 15.81 65.09 15.77 65.01 15.73C64.33 15.35 63.59 15.05 62.79 14.83C61.99 14.61 61.14 14.5 60.24 14.5C58.52 14.5 56.99 14.89 55.65 15.67C54.31 16.45 53.26 17.52 52.5 18.88C51.74 20.24 51.36 21.78 51.36 23.5C51.36 25.22 51.74 26.76 52.5 28.12C53.26 29.48 54.31 30.55 55.65 31.33C56.99 32.11 58.52 32.5 60.24 32.5C61.14 32.5 62.04 32.37 62.94 32.11C63.86 31.85 64.65 31.5 65.31 31.06L65.16 31.69V24.79L65.61 25.21H60.42C60.16 25.21 59.94 25.12 59.76 24.94C59.58 24.76 59.49 24.55 59.49 24.31C59.49 24.03 59.58 23.81 59.76 23.65C59.94 23.49 60.16 23.41 60.42 23.41H66.15C66.41 23.41 66.62 23.5 66.78 23.68C66.96 23.84 67.05 24.05 67.05 24.31V31.54C67.05 31.7 67.01 31.85 66.93 31.99C66.85 32.13 66.74 32.25 66.6 32.35C65.72 32.95 64.73 33.43 63.63 33.79C62.55 34.13 61.42 34.3 60.24 34.3ZM72.9694 33.1C72.9694 33.34 72.8794 33.55 72.6994 33.73C72.5194 33.91 72.3094 34 72.0694 34C71.8094 34 71.5894 33.91 71.4094 33.73C71.2494 33.55 71.1694 33.34 71.1694 33.1V19.3C71.1694 19.06 71.2494 18.85 71.4094 18.67C71.5894 18.49 71.8094 18.4 72.0694 18.4C72.3294 18.4 72.5394 18.49 72.6994 18.67C72.8794 18.85 72.9694 19.06 72.9694 19.3V33.1ZM72.0694 16.39C71.6494 16.39 71.3294 16.3 71.1094 16.12C70.9094 15.92 70.8094 15.64 70.8094 15.28V14.98C70.8094 14.62 70.9194 14.35 71.1394 14.17C71.3794 13.97 71.6994 13.87 72.0994 13.87C72.4794 13.87 72.7694 13.97 72.9694 14.17C73.1894 14.35 73.2994 14.62 73.2994 14.98V15.28C73.2994 15.64 73.1894 15.92 72.9694 16.12C72.7694 16.3 72.4694 16.39 72.0694 16.39ZM76.6554 18.73H83.6454C83.8854 18.73 84.0854 18.82 84.2454 19C84.4054 19.16 84.4854 19.36 84.4854 19.6C84.4854 19.82 84.4054 20.01 84.2454 20.17C84.0854 20.33 83.8854 20.41 83.6454 20.41H76.6554C76.4154 20.41 76.2054 20.33 76.0254 20.17C75.8654 19.99 75.7854 19.79 75.7854 19.57C75.7854 19.33 75.8654 19.13 76.0254 18.97C76.2054 18.81 76.4154 18.73 76.6554 18.73ZM79.7454 14.5C80.0054 14.5 80.2154 14.59 80.3754 14.77C80.5554 14.95 80.6454 15.16 80.6454 15.4V30.46C80.6454 31.02 80.7154 31.44 80.8554 31.72C81.0154 32 81.2154 32.19 81.4554 32.29C81.6954 32.37 81.9354 32.41 82.1754 32.41C82.3354 32.41 82.4754 32.39 82.5954 32.35C82.7354 32.29 82.8854 32.26 83.0454 32.26C83.2254 32.26 83.3754 32.33 83.4954 32.47C83.6354 32.61 83.7054 32.79 83.7054 33.01C83.7054 33.29 83.5454 33.53 83.2254 33.73C82.9054 33.91 82.5254 34 82.0854 34C81.9054 34 81.6354 33.99 81.2754 33.97C80.9154 33.93 80.5454 33.82 80.1654 33.64C79.7854 33.44 79.4654 33.1 79.2054 32.62C78.9654 32.14 78.8454 31.45 78.8454 30.55V15.4C78.8454 15.16 78.9254 14.95 79.0854 14.77C79.2654 14.59 79.4854 14.5 79.7454 14.5Z" fill="black"/>
<path d="M4.98328 20.2974L16.0616 9.19995L19.3008 12.4583C18.8408 14.0874 19.5883 15.8699 21.0833 16.7324V27.3508C19.9333 28.0024 19.1666 29.2483 19.1666 30.6666C19.1666 31.6833 19.5705 32.6583 20.2894 33.3772C21.0083 34.0961 21.9833 34.4999 22.9999 34.4999C24.0166 34.4999 24.9916 34.0961 25.7105 33.3772C26.4294 32.6583 26.8333 31.6833 26.8333 30.6666C26.8333 29.2483 26.0666 28.0024 24.9166 27.3508V18.0358L28.8841 22.0416C28.7499 22.3291 28.7499 22.6549 28.7499 22.9999C28.7499 24.0166 29.1538 24.9916 29.8727 25.7105C30.5916 26.4294 31.5666 26.8333 32.5833 26.8333C33.5999 26.8333 34.575 26.4294 35.2939 25.7105C36.0127 24.9916 36.4166 24.0166 36.4166 22.9999C36.4166 21.9833 36.0127 21.0083 35.2939 20.2894C34.575 19.5705 33.5999 19.1666 32.5833 19.1666C32.2383 19.1666 31.9124 19.1666 31.6249 19.3008L26.6991 14.3749C26.9371 13.4872 26.8448 12.5433 26.4395 11.7184C26.0341 10.8936 25.3431 10.2439 24.4949 9.88995C23.6708 9.58328 22.8083 9.50661 22.0416 9.71745L18.7833 6.47828L20.2974 4.98328C21.7924 3.46911 24.2074 3.46911 25.7024 4.98328L41.0166 20.2974C42.5308 21.7924 42.5308 24.2074 41.0166 25.7024L25.7024 41.0166C24.2074 42.5308 21.7924 42.5308 20.2974 41.0166L4.98328 25.7024C3.46911 24.2074 3.46911 21.7924 4.98328 20.2974Z" fill="#561C24"/>
</g>
<defs>
<clipPath id="clip0_350_2950">
<rect width="85" height="46" fill="white"/>
</clipPath>
</defs>
</svg>
