<svg width="128" height="46" viewBox="0 0 128 46" fill="none" xmlns="http://www.w3.org/2000/svg">
<g clip-path="url(#clip0_350_2922)">
<path d="M51.78 13C52.02 13 52.23 13.09 52.41 13.27C52.61 13.45 52.71 13.67 52.71 13.93V33.07C52.69 33.33 52.58 33.55 52.38 33.73C52.2 33.91 51.99 34 51.75 34C51.47 34 51.24 33.91 51.06 33.73C50.9 33.55 50.82 33.33 50.82 33.07V13.93C50.82 13.67 50.91 13.45 51.09 13.27C51.27 13.09 51.5 13 51.78 13ZM65.85 13C66.13 13 66.35 13.09 66.51 13.27C66.69 13.45 66.78 13.67 66.78 13.93V33.07C66.76 33.33 66.66 33.55 66.48 33.73C66.32 33.91 66.1 34 65.82 34C65.56 34 65.34 33.91 65.16 33.73C64.98 33.55 64.89 33.33 64.89 33.07V13.93C64.89 13.67 64.98 13.45 65.16 13.27C65.36 13.09 65.59 13 65.85 13ZM51.63 22.39H65.88L65.85 24.13H51.51L51.63 22.39ZM78.6518 34C78.3718 34 78.1418 33.91 77.9618 33.73C77.8018 33.55 77.7218 33.34 77.7218 33.1V13.99H79.5818V33.1C79.5818 33.34 79.4918 33.55 79.3118 33.73C79.1318 33.91 78.9118 34 78.6518 34ZM71.5118 14.71C71.2718 14.71 71.0618 14.63 70.8818 14.47C70.7018 14.31 70.6118 14.1 70.6118 13.84C70.6118 13.6 70.7018 13.4 70.8818 13.24C71.0618 13.08 71.2718 13 71.5118 13H85.7918C86.0318 13 86.2418 13.08 86.4218 13.24C86.6018 13.4 86.6918 13.61 86.6918 13.87C86.6918 14.13 86.6018 14.34 86.4218 14.5C86.2418 14.64 86.0318 14.71 85.7918 14.71H71.5118ZM91.4173 13C91.5573 13 91.6973 13.03 91.8373 13.09C91.9973 13.15 92.1273 13.25 92.2273 13.39L100.507 25.81L99.6973 25.78L108.007 13.39C108.227 13.09 108.497 12.96 108.817 13C109.057 13 109.257 13.09 109.417 13.27C109.597 13.43 109.687 13.64 109.687 13.9V33.1C109.687 33.34 109.597 33.55 109.417 33.73C109.237 33.91 109.017 34 108.757 34C108.477 34 108.247 33.91 108.067 33.73C107.887 33.55 107.797 33.34 107.797 33.1V15.73L108.337 15.79L100.747 27.28C100.687 27.4 100.597 27.5 100.477 27.58C100.357 27.64 100.217 27.66 100.057 27.64C99.9173 27.66 99.7773 27.64 99.6373 27.58C99.5173 27.5 99.4173 27.4 99.3373 27.28L91.7173 15.67L92.2873 15.28V33.1C92.2873 33.34 92.1973 33.55 92.0173 33.73C91.8573 33.91 91.6473 34 91.3873 34C91.1273 34 90.9173 33.91 90.7573 33.73C90.5973 33.55 90.5173 33.34 90.5173 33.1V13.9C90.5173 13.66 90.5973 13.45 90.7573 13.27C90.9373 13.09 91.1573 13 91.4173 13ZM126.942 32.23C127.182 32.23 127.392 32.32 127.572 32.5C127.752 32.66 127.842 32.86 127.842 33.1C127.842 33.36 127.752 33.58 127.572 33.76C127.392 33.92 127.182 34 126.942 34H116.232C115.972 34 115.752 33.91 115.572 33.73C115.412 33.55 115.332 33.34 115.332 33.1V13.9C115.332 13.66 115.422 13.45 115.602 13.27C115.782 13.09 116.012 13 116.292 13C116.532 13 116.742 13.09 116.922 13.27C117.122 13.45 117.222 13.66 117.222 13.9V32.74L116.652 32.23H126.942Z" fill="black"/>
<path d="M5.75 3.83398L8.7745 37.9966L23 42.1673L37.3117 37.9986L40.25 3.83398H5.75ZM32.6772 15.426H17.3937L17.7234 19.29H32.476L31.2762 31.8729L23.138 34.5198L14.9327 31.7311L14.3807 26.1114H18.2601L18.5668 28.8158L23.1667 30.3779L27.6632 28.9155L28.2325 23.1559H14.214L13.1368 11.5601H33.0932L32.6772 15.426Z" fill="#561C24"/>
</g>
<defs>
<clipPath id="clip0_350_2922">
<rect width="128" height="46" fill="white"/>
</clipPath>
</defs>
</svg>
