<svg width="196" height="46" viewBox="0 0 196 46" fill="none" xmlns="http://www.w3.org/2000/svg">
<g clip-path="url(#clip0_350_2958)">
<path d="M55.8 34.3C54.54 34.3 53.41 33.95 52.41 33.25C51.41 32.55 50.65 31.63 50.13 30.49C50.03 30.31 49.98 30.15 49.98 30.01C49.98 29.75 50.08 29.55 50.28 29.41C50.48 29.25 50.68 29.17 50.88 29.17C51.08 29.17 51.24 29.22 51.36 29.32C51.5 29.42 51.62 29.54 51.72 29.68C52.1 30.52 52.65 31.2 53.37 31.72C54.09 32.24 54.9 32.5 55.8 32.5C56.72 32.5 57.53 32.31 58.23 31.93C58.93 31.53 59.47 30.98 59.85 30.28C60.25 29.58 60.45 28.78 60.45 27.88V13.9C60.45 13.66 60.54 13.45 60.72 13.27C60.92 13.09 61.15 13 61.41 13C61.69 13 61.91 13.09 62.07 13.27C62.25 13.45 62.34 13.66 62.34 13.9V27.88C62.34 29.12 62.06 30.23 61.5 31.21C60.94 32.17 60.17 32.93 59.19 33.49C58.21 34.03 57.08 34.3 55.8 34.3ZM80.108 18.67C80.368 18.67 80.578 18.76 80.738 18.94C80.918 19.12 81.008 19.34 81.008 19.6V33.1C81.008 33.34 80.918 33.55 80.738 33.73C80.558 33.91 80.348 34 80.108 34C79.848 34 79.628 33.91 79.448 33.73C79.288 33.55 79.208 33.34 79.208 33.1V29.53L79.718 29.29C79.718 29.85 79.558 30.42 79.238 31C78.938 31.58 78.518 32.12 77.978 32.62C77.438 33.12 76.798 33.53 76.058 33.85C75.338 34.15 74.558 34.3 73.718 34.3C72.358 34.3 71.138 33.95 70.058 33.25C68.998 32.55 68.158 31.59 67.538 30.37C66.938 29.15 66.638 27.78 66.638 26.26C66.638 24.7 66.948 23.33 67.568 22.15C68.188 20.95 69.028 20.01 70.088 19.33C71.148 18.65 72.348 18.31 73.688 18.31C74.548 18.31 75.348 18.46 76.088 18.76C76.848 19.06 77.508 19.47 78.068 19.99C78.628 20.51 79.058 21.11 79.358 21.79C79.678 22.45 79.838 23.14 79.838 23.86L79.208 23.41V19.6C79.208 19.34 79.288 19.12 79.448 18.94C79.628 18.76 79.848 18.67 80.108 18.67ZM73.868 32.62C74.928 32.62 75.868 32.35 76.688 31.81C77.508 31.25 78.148 30.49 78.608 29.53C79.088 28.55 79.328 27.46 79.328 26.26C79.328 25.08 79.088 24.02 78.608 23.08C78.148 22.14 77.508 21.39 76.688 20.83C75.868 20.27 74.928 19.99 73.868 19.99C72.828 19.99 71.888 20.26 71.048 20.8C70.228 21.34 69.578 22.08 69.098 23.02C68.638 23.96 68.408 25.04 68.408 26.26C68.408 27.46 68.638 28.55 69.098 29.53C69.578 30.49 70.228 31.25 71.048 31.81C71.868 32.35 72.808 32.62 73.868 32.62ZM85.0198 18.34C85.1798 18.34 85.3398 18.39 85.4998 18.49C85.6598 18.59 85.7798 18.74 85.8598 18.94L91.1098 31.42L90.7198 31.66L96.0898 18.94C96.2498 18.54 96.5398 18.35 96.9598 18.37C97.1598 18.37 97.3498 18.44 97.5298 18.58C97.7098 18.7 97.7998 18.88 97.7998 19.12C97.7998 19.24 97.7798 19.34 97.7398 19.42C97.7198 19.48 97.6998 19.55 97.6798 19.63L91.7998 33.43C91.6398 33.79 91.3698 33.98 90.9898 34C90.8098 34.02 90.6298 33.98 90.4498 33.88C90.2898 33.76 90.1698 33.61 90.0898 33.43L84.1798 19.63C84.1598 19.59 84.1398 19.53 84.1198 19.45C84.0998 19.37 84.0898 19.29 84.0898 19.21C84.0898 18.99 84.1698 18.79 84.3298 18.61C84.4898 18.43 84.7198 18.34 85.0198 18.34ZM113.77 18.67C114.03 18.67 114.24 18.76 114.4 18.94C114.58 19.12 114.67 19.34 114.67 19.6V33.1C114.67 33.34 114.58 33.55 114.4 33.73C114.22 33.91 114.01 34 113.77 34C113.51 34 113.29 33.91 113.11 33.73C112.95 33.55 112.87 33.34 112.87 33.1V29.53L113.38 29.29C113.38 29.85 113.22 30.42 112.9 31C112.6 31.58 112.18 32.12 111.64 32.62C111.1 33.12 110.46 33.53 109.72 33.85C109 34.15 108.22 34.3 107.38 34.3C106.02 34.3 104.8 33.95 103.72 33.25C102.66 32.55 101.82 31.59 101.2 30.37C100.6 29.15 100.3 27.78 100.3 26.26C100.3 24.7 100.61 23.33 101.23 22.15C101.85 20.95 102.69 20.01 103.75 19.33C104.81 18.65 106.01 18.31 107.35 18.31C108.21 18.31 109.01 18.46 109.75 18.76C110.51 19.06 111.17 19.47 111.73 19.99C112.29 20.51 112.72 21.11 113.02 21.79C113.34 22.45 113.5 23.14 113.5 23.86L112.87 23.41V19.6C112.87 19.34 112.95 19.12 113.11 18.94C113.29 18.76 113.51 18.67 113.77 18.67ZM107.53 32.62C108.59 32.62 109.53 32.35 110.35 31.81C111.17 31.25 111.81 30.49 112.27 29.53C112.75 28.55 112.99 27.46 112.99 26.26C112.99 25.08 112.75 24.02 112.27 23.08C111.81 22.14 111.17 21.39 110.35 20.83C109.53 20.27 108.59 19.99 107.53 19.99C106.49 19.99 105.55 20.26 104.71 20.8C103.89 21.34 103.24 22.08 102.76 23.02C102.3 23.96 102.07 25.04 102.07 26.26C102.07 27.46 102.3 28.55 102.76 29.53C103.24 30.49 103.89 31.25 104.71 31.81C105.53 32.35 106.47 32.62 107.53 32.62ZM125.633 34.3C124.113 34.32 122.793 34.08 121.673 33.58C120.553 33.08 119.483 32.33 118.463 31.33C118.363 31.25 118.273 31.15 118.193 31.03C118.133 30.91 118.103 30.77 118.103 30.61C118.103 30.37 118.193 30.15 118.373 29.95C118.573 29.75 118.793 29.65 119.033 29.65C119.273 29.65 119.493 29.75 119.693 29.95C120.473 30.79 121.353 31.43 122.333 31.87C123.333 32.31 124.403 32.53 125.543 32.53C126.503 32.53 127.353 32.38 128.093 32.08C128.853 31.78 129.453 31.35 129.893 30.79C130.333 30.23 130.553 29.58 130.553 28.84C130.553 27.92 130.303 27.18 129.803 26.62C129.303 26.04 128.643 25.57 127.823 25.21C127.003 24.83 126.093 24.49 125.093 24.19C124.273 23.95 123.493 23.68 122.753 23.38C122.013 23.06 121.353 22.68 120.773 22.24C120.193 21.78 119.743 21.22 119.423 20.56C119.103 19.9 118.943 19.1 118.943 18.16C118.943 17.1 119.223 16.16 119.783 15.34C120.343 14.52 121.133 13.88 122.153 13.42C123.193 12.94 124.393 12.7 125.753 12.7C126.933 12.7 128.063 12.9 129.143 13.3C130.243 13.7 131.113 14.29 131.753 15.07C132.053 15.39 132.203 15.68 132.203 15.94C132.203 16.14 132.103 16.34 131.903 16.54C131.703 16.74 131.483 16.84 131.243 16.84C131.043 16.84 130.873 16.77 130.733 16.63C130.393 16.21 129.963 15.84 129.443 15.52C128.923 15.18 128.343 14.92 127.703 14.74C127.083 14.56 126.433 14.47 125.753 14.47C124.813 14.47 123.963 14.62 123.203 14.92C122.463 15.2 121.873 15.61 121.433 16.15C121.013 16.69 120.803 17.34 120.803 18.1C120.803 18.94 121.043 19.63 121.523 20.17C122.003 20.71 122.633 21.16 123.413 21.52C124.193 21.86 125.023 22.18 125.903 22.48C126.763 22.72 127.583 23 128.363 23.32C129.163 23.62 129.863 24 130.463 24.46C131.083 24.92 131.563 25.5 131.903 26.2C132.263 26.9 132.443 27.78 132.443 28.84C132.443 29.86 132.153 30.78 131.573 31.6C130.993 32.42 130.193 33.07 129.173 33.55C128.173 34.03 126.993 34.28 125.633 34.3ZM142.989 18.31C143.949 18.31 144.829 18.42 145.629 18.64C146.429 18.84 147.069 19.12 147.549 19.48C148.049 19.84 148.299 20.23 148.299 20.65C148.299 20.85 148.229 21.05 148.089 21.25C147.949 21.43 147.759 21.52 147.519 21.52C147.279 21.52 147.079 21.46 146.919 21.34C146.779 21.22 146.629 21.08 146.469 20.92C146.329 20.76 146.119 20.61 145.839 20.47C145.579 20.35 145.209 20.24 144.729 20.14C144.249 20.04 143.699 19.99 143.079 19.99C141.959 19.99 140.949 20.27 140.049 20.83C139.149 21.39 138.439 22.15 137.919 23.11C137.399 24.05 137.139 25.11 137.139 26.29C137.139 27.49 137.389 28.57 137.889 29.53C138.389 30.49 139.079 31.25 139.959 31.81C140.839 32.35 141.869 32.62 143.049 32.62C143.849 32.62 144.469 32.55 144.909 32.41C145.349 32.27 145.729 32.11 146.049 31.93C146.429 31.71 146.699 31.5 146.859 31.3C147.039 31.08 147.269 30.97 147.549 30.97C147.809 30.97 147.999 31.05 148.119 31.21C148.259 31.35 148.329 31.54 148.329 31.78C148.329 32.1 148.089 32.46 147.609 32.86C147.149 33.24 146.509 33.58 145.689 33.88C144.869 34.16 143.929 34.3 142.869 34.3C141.369 34.3 140.049 33.95 138.909 33.25C137.789 32.55 136.909 31.6 136.269 30.4C135.649 29.18 135.339 27.81 135.339 26.29C135.339 24.83 135.659 23.5 136.299 22.3C136.939 21.1 137.829 20.14 138.969 19.42C140.129 18.68 141.469 18.31 142.989 18.31ZM152.666 34C152.386 34 152.166 33.91 152.006 33.73C151.846 33.55 151.766 33.34 151.766 33.1V19.66C151.766 19.42 151.846 19.21 152.006 19.03C152.186 18.85 152.406 18.76 152.666 18.76C152.926 18.76 153.136 18.85 153.296 19.03C153.476 19.21 153.566 19.42 153.566 19.66V24.16L153.116 24.25C153.176 23.55 153.346 22.86 153.626 22.18C153.926 21.48 154.326 20.84 154.826 20.26C155.326 19.68 155.916 19.21 156.596 18.85C157.296 18.49 158.076 18.31 158.936 18.31C159.296 18.31 159.646 18.39 159.986 18.55C160.326 18.69 160.496 18.93 160.496 19.27C160.496 19.57 160.416 19.8 160.256 19.96C160.096 20.12 159.906 20.2 159.686 20.2C159.506 20.2 159.306 20.15 159.086 20.05C158.886 19.95 158.616 19.9 158.276 19.9C157.716 19.9 157.156 20.07 156.596 20.41C156.036 20.73 155.526 21.17 155.066 21.73C154.606 22.29 154.236 22.92 153.956 23.62C153.696 24.3 153.566 24.99 153.566 25.69V33.1C153.566 33.34 153.476 33.55 153.296 33.73C153.116 33.91 152.906 34 152.666 34ZM165.049 33.1C165.049 33.34 164.959 33.55 164.779 33.73C164.599 33.91 164.389 34 164.149 34C163.889 34 163.669 33.91 163.489 33.73C163.329 33.55 163.249 33.34 163.249 33.1V19.3C163.249 19.06 163.329 18.85 163.489 18.67C163.669 18.49 163.889 18.4 164.149 18.4C164.409 18.4 164.619 18.49 164.779 18.67C164.959 18.85 165.049 19.06 165.049 19.3V33.1ZM164.149 16.39C163.729 16.39 163.409 16.3 163.189 16.12C162.989 15.92 162.889 15.64 162.889 15.28V14.98C162.889 14.62 162.999 14.35 163.219 14.17C163.459 13.97 163.779 13.87 164.179 13.87C164.559 13.87 164.849 13.97 165.049 14.17C165.269 14.35 165.379 14.62 165.379 14.98V15.28C165.379 15.64 165.269 15.92 165.049 16.12C164.849 16.3 164.549 16.39 164.149 16.39ZM177.015 18.55C178.375 18.55 179.575 18.89 180.615 19.57C181.675 20.23 182.515 21.15 183.135 22.33C183.755 23.49 184.065 24.83 184.065 26.35C184.065 27.87 183.755 29.22 183.135 30.4C182.515 31.58 181.675 32.51 180.615 33.19C179.555 33.87 178.365 34.21 177.045 34.21C176.345 34.21 175.675 34.11 175.035 33.91C174.415 33.69 173.845 33.4 173.325 33.04C172.805 32.68 172.345 32.26 171.945 31.78C171.545 31.28 171.225 30.74 170.985 30.16L171.525 29.77V39.1C171.525 39.34 171.435 39.55 171.255 39.73C171.095 39.91 170.885 40 170.625 40C170.365 40 170.145 39.91 169.965 39.73C169.805 39.55 169.725 39.34 169.725 39.1V19.54C169.725 19.28 169.805 19.06 169.965 18.88C170.125 18.7 170.345 18.61 170.625 18.61C170.885 18.61 171.095 18.7 171.255 18.88C171.435 19.06 171.525 19.28 171.525 19.54V22.78L171.105 22.54C171.305 21.92 171.595 21.37 171.975 20.89C172.375 20.39 172.835 19.97 173.355 19.63C173.875 19.27 174.445 19 175.065 18.82C175.685 18.64 176.335 18.55 177.015 18.55ZM176.865 20.23C175.785 20.23 174.835 20.5 174.015 21.04C173.195 21.56 172.545 22.28 172.065 23.2C171.605 24.1 171.375 25.15 171.375 26.35C171.375 27.53 171.605 28.59 172.065 29.53C172.545 30.47 173.195 31.21 174.015 31.75C174.835 32.27 175.785 32.53 176.865 32.53C177.925 32.53 178.855 32.27 179.655 31.75C180.475 31.21 181.125 30.47 181.605 29.53C182.085 28.59 182.325 27.53 182.325 26.35C182.325 25.17 182.085 24.12 181.605 23.2C181.125 22.28 180.475 21.56 179.655 21.04C178.855 20.5 177.925 20.23 176.865 20.23ZM186.929 18.73H193.919C194.159 18.73 194.359 18.82 194.519 19C194.679 19.16 194.759 19.36 194.759 19.6C194.759 19.82 194.679 20.01 194.519 20.17C194.359 20.33 194.159 20.41 193.919 20.41H186.929C186.689 20.41 186.479 20.33 186.299 20.17C186.139 19.99 186.059 19.79 186.059 19.57C186.059 19.33 186.139 19.13 186.299 18.97C186.479 18.81 186.689 18.73 186.929 18.73ZM190.019 14.5C190.279 14.5 190.489 14.59 190.649 14.77C190.829 14.95 190.919 15.16 190.919 15.4V30.46C190.919 31.02 190.989 31.44 191.129 31.72C191.289 32 191.489 32.19 191.729 32.29C191.969 32.37 192.209 32.41 192.449 32.41C192.609 32.41 192.749 32.39 192.869 32.35C193.009 32.29 193.159 32.26 193.319 32.26C193.499 32.26 193.649 32.33 193.769 32.47C193.909 32.61 193.979 32.79 193.979 33.01C193.979 33.29 193.819 33.53 193.499 33.73C193.179 33.91 192.799 34 192.359 34C192.179 34 191.909 33.99 191.549 33.97C191.189 33.93 190.819 33.82 190.439 33.64C190.059 33.44 189.739 33.1 189.479 32.62C189.239 32.14 189.119 31.45 189.119 30.55V15.4C189.119 15.16 189.199 14.95 189.359 14.77C189.539 14.59 189.759 14.5 190.019 14.5Z" fill="black"/>
<path d="M11.5 5.75C9.97501 5.75 8.51247 6.3558 7.43414 7.43414C6.3558 8.51247 5.75 9.97501 5.75 11.5V34.5C5.75 36.025 6.3558 37.4875 7.43414 38.5659C8.51247 39.6442 9.97501 40.25 11.5 40.25H34.5C36.025 40.25 37.4875 39.6442 38.5659 38.5659C39.6442 37.4875 40.25 36.025 40.25 34.5V11.5C40.25 9.97501 39.6442 8.51247 38.5659 7.43414C37.4875 6.3558 36.025 5.75 34.5 5.75H11.5ZM25.5568 30.7721C26.9368 31.8838 28.313 32.43 29.6892 32.4166C30.5325 32.4166 31.1803 32.2632 31.6288 31.9527C31.8382 31.8168 32.0086 31.6287 32.1232 31.4069C32.2379 31.185 32.2927 30.9372 32.2824 30.6877C32.2852 30.4157 32.2283 30.1463 32.1157 29.8986C32.0031 29.6509 31.8376 29.4309 31.6307 29.2541C31.1803 28.8612 30.3293 28.4683 29.0777 28.0734C27.5751 27.6383 26.4136 27.0767 25.599 26.3867C24.7978 25.6967 24.3915 24.7346 24.3762 23.4983C24.3762 22.3311 24.8822 21.3555 25.8942 20.5677C26.8793 19.7819 28.1367 19.3871 29.67 19.3871C31.8052 19.3871 33.5206 19.9065 34.8124 20.9472L33.3366 23.2453C32.8052 22.832 32.1956 22.5308 31.5445 22.3598C30.9594 22.1641 30.3482 22.0575 29.7313 22.0436C29.003 22.0436 28.4184 22.1777 27.9814 22.4442C27.5463 22.7125 27.3297 23.0633 27.3297 23.4983C27.3297 23.9775 27.5962 24.3838 28.129 24.7212C28.6657 25.0451 29.578 25.4035 30.8698 25.7964C32.43 26.2602 33.5417 26.8793 34.201 27.6517C34.8622 28.4242 35.1919 29.4093 35.1919 30.6034C35.1919 31.8262 34.7223 32.8804 33.7793 33.7659C32.8517 34.638 31.5023 35.0942 29.7313 35.1363C27.4122 35.1363 25.4725 34.4406 23.9123 33.0491L25.5568 30.7721ZM14.9577 31.9949C15.4081 32.2767 15.9486 32.4166 16.5811 32.4166C17.2423 32.4166 17.7886 32.2268 18.2256 31.8473C18.6607 31.4544 18.8792 30.7721 18.8792 29.8022V19.6401H21.7254V30.3504C21.6832 32.0083 21.206 33.2043 20.2917 33.9346C19.7929 34.3588 19.2114 34.6747 18.584 34.8622C18.0029 35.0393 17.3993 35.1316 16.7919 35.1363C15.7377 35.1363 14.8024 34.9542 13.9878 34.5882C13.1157 34.1952 12.3855 33.4995 11.7952 32.5009L13.777 30.8775C14.1412 31.3701 14.536 31.7419 14.9577 31.9949Z" fill="#561C24"/>
</g>
<defs>
<clipPath id="clip0_350_2958">
<rect width="196" height="46" fill="white"/>
</clipPath>
</defs>
</svg>
