<svg width="189" height="46" viewBox="0 0 189 46" fill="none" xmlns="http://www.w3.org/2000/svg">
<g clip-path="url(#clip0_350_2905)">
<path d="M62.43 32.23C62.67 32.23 62.88 32.32 63.06 32.5C63.24 32.66 63.33 32.86 63.33 33.1C63.33 33.36 63.24 33.58 63.06 33.76C62.88 33.92 62.67 34 62.43 34H51.72C51.46 34 51.24 33.91 51.06 33.73C50.9 33.55 50.82 33.34 50.82 33.1V13.9C50.82 13.66 50.91 13.45 51.09 13.27C51.27 13.09 51.5 13 51.78 13C52.02 13 52.23 13.09 52.41 13.27C52.61 13.45 52.71 13.66 52.71 13.9V32.74L52.14 32.23H62.43ZM68.0768 33.1C68.0768 33.34 67.9868 33.55 67.8068 33.73C67.6268 33.91 67.4168 34 67.1768 34C66.9168 34 66.6968 33.91 66.5168 33.73C66.3568 33.55 66.2768 33.34 66.2768 33.1V19.3C66.2768 19.06 66.3568 18.85 66.5168 18.67C66.6968 18.49 66.9168 18.4 67.1768 18.4C67.4368 18.4 67.6468 18.49 67.8068 18.67C67.9868 18.85 68.0768 19.06 68.0768 19.3V33.1ZM67.1768 16.39C66.7568 16.39 66.4368 16.3 66.2168 16.12C66.0168 15.92 65.9168 15.64 65.9168 15.28V14.98C65.9168 14.62 66.0268 14.35 66.2468 14.17C66.4868 13.97 66.8068 13.87 67.2068 13.87C67.5868 13.87 67.8768 13.97 68.0768 14.17C68.2968 14.35 68.4068 14.62 68.4068 14.98V15.28C68.4068 15.64 68.2968 15.92 68.0768 16.12C67.8768 16.3 67.5768 16.39 67.1768 16.39ZM79.1428 18.31C80.0428 18.31 80.8728 18.47 81.6328 18.79C82.3928 19.09 83.0528 19.49 83.6128 19.99C84.1928 20.47 84.6428 20.99 84.9628 21.55C85.2828 22.09 85.4428 22.61 85.4428 23.11L84.9328 22.39V19.6C84.9328 19.34 85.0128 19.12 85.1728 18.94C85.3528 18.76 85.5728 18.67 85.8328 18.67C86.1128 18.67 86.3328 18.76 86.4928 18.94C86.6528 19.12 86.7328 19.34 86.7328 19.6V32.59C86.7328 34.19 86.4028 35.54 85.7428 36.64C85.0828 37.74 84.1828 38.57 83.0428 39.13C81.9228 39.71 80.6428 40 79.2028 40C78.5028 40 77.7628 39.91 76.9828 39.73C76.2228 39.55 75.5628 39.32 75.0028 39.04C74.4628 38.76 74.1628 38.47 74.1028 38.17C73.9428 37.99 73.8628 37.81 73.8628 37.63C73.8828 37.47 73.9728 37.33 74.1328 37.21C74.3328 37.07 74.5428 37.05 74.7628 37.15C74.9828 37.27 75.3128 37.42 75.7528 37.6C75.9528 37.66 76.2228 37.75 76.5628 37.87C76.9028 37.99 77.3028 38.09 77.7628 38.17C78.2428 38.27 78.7428 38.32 79.2628 38.32C81.0628 38.32 82.4528 37.8 83.4328 36.76C84.4328 35.74 84.9328 34.39 84.9328 32.71V29.83L85.2628 29.92C85.0828 30.64 84.7828 31.27 84.3628 31.81C83.9628 32.35 83.4828 32.81 82.9228 33.19C82.3628 33.55 81.7528 33.82 81.0928 34C80.4528 34.2 79.8128 34.3 79.1728 34.3C77.7928 34.3 76.5528 33.95 75.4528 33.25C74.3528 32.55 73.4728 31.6 72.8128 30.4C72.1728 29.2 71.8528 27.83 71.8528 26.29C71.8528 24.77 72.1728 23.41 72.8128 22.21C73.4728 20.99 74.3428 20.04 75.4228 19.36C76.5228 18.66 77.7628 18.31 79.1428 18.31ZM79.3528 19.99C78.2528 19.99 77.2628 20.27 76.3828 20.83C75.5228 21.37 74.8428 22.12 74.3428 23.08C73.8628 24.02 73.6228 25.09 73.6228 26.29C73.6228 27.49 73.8628 28.57 74.3428 29.53C74.8428 30.49 75.5228 31.25 76.3828 31.81C77.2628 32.35 78.2528 32.62 79.3528 32.62C80.4528 32.62 81.4328 32.35 82.2928 31.81C83.1528 31.27 83.8328 30.53 84.3328 29.59C84.8328 28.63 85.0828 27.53 85.0828 26.29C85.0828 25.05 84.8328 23.96 84.3328 23.02C83.8328 22.06 83.1528 21.32 82.2928 20.8C81.4328 20.26 80.4528 19.99 79.3528 19.99ZM98.4635 18.55C99.7235 18.55 100.744 18.82 101.524 19.36C102.304 19.9 102.874 20.63 103.234 21.55C103.614 22.47 103.804 23.49 103.804 24.61V33.1C103.804 33.34 103.714 33.55 103.534 33.73C103.354 33.91 103.144 34 102.904 34C102.624 34 102.404 33.91 102.244 33.73C102.084 33.55 102.004 33.34 102.004 33.1V24.61C102.004 23.79 101.874 23.05 101.614 22.39C101.374 21.73 100.974 21.21 100.414 20.83C99.8535 20.43 99.1035 20.23 98.1635 20.23C97.3235 20.23 96.5235 20.43 95.7635 20.83C95.0235 21.21 94.4235 21.73 93.9635 22.39C93.5035 23.05 93.2735 23.79 93.2735 24.61V33.1C93.2735 33.34 93.1835 33.55 93.0035 33.73C92.8235 33.91 92.6135 34 92.3735 34C92.0935 34 91.8735 33.91 91.7135 33.73C91.5535 33.55 91.4735 33.34 91.4735 33.1V12.7C91.4735 12.46 91.5535 12.25 91.7135 12.07C91.8935 11.89 92.1135 11.8 92.3735 11.8C92.6335 11.8 92.8435 11.89 93.0035 12.07C93.1835 12.25 93.2735 12.46 93.2735 12.7V22.42L92.5835 23.47C92.6235 22.85 92.8135 22.25 93.1535 21.67C93.5135 21.07 93.9735 20.54 94.5335 20.08C95.0935 19.6 95.7135 19.23 96.3935 18.97C97.0735 18.69 97.7635 18.55 98.4635 18.55ZM107.534 18.73H114.524C114.764 18.73 114.964 18.82 115.124 19C115.284 19.16 115.364 19.36 115.364 19.6C115.364 19.82 115.284 20.01 115.124 20.17C114.964 20.33 114.764 20.41 114.524 20.41H107.534C107.294 20.41 107.084 20.33 106.904 20.17C106.744 19.99 106.664 19.79 106.664 19.57C106.664 19.33 106.744 19.13 106.904 18.97C107.084 18.81 107.294 18.73 107.534 18.73ZM110.624 14.5C110.884 14.5 111.094 14.59 111.254 14.77C111.434 14.95 111.524 15.16 111.524 15.4V30.46C111.524 31.02 111.594 31.44 111.734 31.72C111.894 32 112.094 32.19 112.334 32.29C112.574 32.37 112.814 32.41 113.054 32.41C113.214 32.41 113.354 32.39 113.474 32.35C113.614 32.29 113.764 32.26 113.924 32.26C114.104 32.26 114.254 32.33 114.374 32.47C114.514 32.61 114.584 32.79 114.584 33.01C114.584 33.29 114.424 33.53 114.104 33.73C113.784 33.91 113.404 34 112.964 34C112.784 34 112.514 33.99 112.154 33.97C111.794 33.93 111.424 33.82 111.044 33.64C110.664 33.44 110.344 33.1 110.084 32.62C109.844 32.14 109.724 31.45 109.724 30.55V15.4C109.724 15.16 109.804 14.95 109.964 14.77C110.144 14.59 110.364 14.5 110.624 14.5ZM119.59 34C119.31 34 119.09 33.91 118.93 33.73C118.77 33.55 118.69 33.34 118.69 33.1V19.66C118.69 19.42 118.77 19.21 118.93 19.03C119.11 18.85 119.33 18.76 119.59 18.76C119.85 18.76 120.06 18.85 120.22 19.03C120.4 19.21 120.49 19.42 120.49 19.66V24.16L120.04 24.25C120.1 23.55 120.27 22.86 120.55 22.18C120.85 21.48 121.25 20.84 121.75 20.26C122.25 19.68 122.84 19.21 123.52 18.85C124.22 18.49 125 18.31 125.86 18.31C126.22 18.31 126.57 18.39 126.91 18.55C127.25 18.69 127.42 18.93 127.42 19.27C127.42 19.57 127.34 19.8 127.18 19.96C127.02 20.12 126.83 20.2 126.61 20.2C126.43 20.2 126.23 20.15 126.01 20.05C125.81 19.95 125.54 19.9 125.2 19.9C124.64 19.9 124.08 20.07 123.52 20.41C122.96 20.73 122.45 21.17 121.99 21.73C121.53 22.29 121.16 22.92 120.88 23.62C120.62 24.3 120.49 24.99 120.49 25.69V33.1C120.49 33.34 120.4 33.55 120.22 33.73C120.04 33.91 119.83 34 119.59 34ZM143.839 26.32C143.839 27.84 143.509 29.21 142.849 30.43C142.189 31.63 141.289 32.58 140.149 33.28C139.009 33.96 137.709 34.3 136.249 34.3C134.829 34.3 133.539 33.96 132.379 33.28C131.239 32.58 130.329 31.63 129.649 30.43C128.989 29.21 128.659 27.84 128.659 26.32C128.659 24.78 128.989 23.41 129.649 22.21C130.329 21.01 131.239 20.06 132.379 19.36C133.539 18.66 134.829 18.31 136.249 18.31C137.709 18.31 139.009 18.66 140.149 19.36C141.289 20.06 142.189 21.01 142.849 22.21C143.509 23.41 143.839 24.78 143.839 26.32ZM142.039 26.32C142.039 25.1 141.789 24.02 141.289 23.08C140.789 22.12 140.099 21.37 139.219 20.83C138.359 20.27 137.369 19.99 136.249 19.99C135.169 19.99 134.189 20.27 133.309 20.83C132.429 21.37 131.729 22.12 131.209 23.08C130.709 24.02 130.459 25.1 130.459 26.32C130.459 27.54 130.709 28.62 131.209 29.56C131.729 30.5 132.429 31.25 133.309 31.81C134.189 32.35 135.169 32.62 136.249 32.62C137.369 32.62 138.359 32.35 139.219 31.81C140.099 31.25 140.789 30.5 141.289 29.56C141.789 28.62 142.039 27.54 142.039 26.32ZM161.945 26.32C161.945 27.84 161.615 29.21 160.955 30.43C160.295 31.63 159.395 32.58 158.255 33.28C157.115 33.96 155.815 34.3 154.355 34.3C152.935 34.3 151.645 33.96 150.485 33.28C149.345 32.58 148.435 31.63 147.755 30.43C147.095 29.21 146.765 27.84 146.765 26.32C146.765 24.78 147.095 23.41 147.755 22.21C148.435 21.01 149.345 20.06 150.485 19.36C151.645 18.66 152.935 18.31 154.355 18.31C155.815 18.31 157.115 18.66 158.255 19.36C159.395 20.06 160.295 21.01 160.955 22.21C161.615 23.41 161.945 24.78 161.945 26.32ZM160.145 26.32C160.145 25.1 159.895 24.02 159.395 23.08C158.895 22.12 158.205 21.37 157.325 20.83C156.465 20.27 155.475 19.99 154.355 19.99C153.275 19.99 152.295 20.27 151.415 20.83C150.535 21.37 149.835 22.12 149.315 23.08C148.815 24.02 148.565 25.1 148.565 26.32C148.565 27.54 148.815 28.62 149.315 29.56C149.835 30.5 150.535 31.25 151.415 31.81C152.295 32.35 153.275 32.62 154.355 32.62C155.475 32.62 156.465 32.35 157.325 31.81C158.205 31.25 158.895 30.5 159.395 29.56C159.895 28.62 160.145 27.54 160.145 26.32ZM172.67 18.55C173.91 18.55 174.97 18.88 175.85 19.54C176.73 20.18 177.33 21.14 177.65 22.42L177.23 22.54L177.41 22C177.67 21.4 178.1 20.84 178.7 20.32C179.32 19.78 180.02 19.35 180.8 19.03C181.58 18.71 182.37 18.55 183.17 18.55C184.43 18.55 185.44 18.82 186.2 19.36C186.98 19.9 187.54 20.63 187.88 21.55C188.24 22.45 188.42 23.47 188.42 24.61V33.1C188.42 33.34 188.33 33.55 188.15 33.73C187.99 33.91 187.78 34 187.52 34C187.26 34 187.04 33.91 186.86 33.73C186.7 33.55 186.62 33.34 186.62 33.1V24.7C186.62 23.88 186.49 23.13 186.23 22.45C185.97 21.77 185.56 21.23 185 20.83C184.44 20.43 183.69 20.23 182.75 20.23C181.93 20.23 181.14 20.43 180.38 20.83C179.64 21.23 179.03 21.77 178.55 22.45C178.09 23.13 177.86 23.88 177.86 24.7V33.1C177.86 33.34 177.77 33.55 177.59 33.73C177.43 33.91 177.22 34 176.96 34C176.7 34 176.48 33.91 176.3 33.73C176.14 33.55 176.06 33.34 176.06 33.1V24.61C176.06 23.79 175.94 23.05 175.7 22.39C175.46 21.73 175.07 21.21 174.53 20.83C173.99 20.43 173.26 20.23 172.34 20.23C171.52 20.23 170.74 20.43 170 20.83C169.28 21.21 168.69 21.73 168.23 22.39C167.79 23.05 167.57 23.79 167.57 24.61V33.1C167.57 33.34 167.48 33.55 167.3 33.73C167.12 33.91 166.91 34 166.67 34C166.39 34 166.17 33.91 166.01 33.73C165.85 33.55 165.77 33.34 165.77 33.1V19.66C165.77 19.42 165.85 19.21 166.01 19.03C166.19 18.85 166.41 18.76 166.67 18.76C166.93 18.76 167.14 18.85 167.3 19.03C167.48 19.21 167.57 19.42 167.57 19.66V22.45L166.76 23.56C166.82 22.96 167.01 22.36 167.33 21.76C167.67 21.16 168.11 20.62 168.65 20.14C169.19 19.66 169.8 19.28 170.48 19C171.18 18.7 171.91 18.55 172.67 18.55Z" fill="black"/>
<g clip-path="url(#clip1_350_2905)">
<path d="M37.8542 0.574219H8.14583C3.64167 0.574219 0 4.21589 0 8.72005V37.2784C0 41.7826 3.64167 45.4242 8.14583 45.4242H37.8542C42.3583 45.4242 46 41.7826 46 37.2784V8.72005C46 4.21589 42.3583 0.574219 37.8542 0.574219ZM24.4567 31.9865C24.4567 32.0842 24.4011 32.159 24.3417 32.2184C24.2846 32.2569 24.2169 32.2764 24.1481 32.274H11.9983C11.7875 32.274 11.6917 32.1571 11.6917 31.929V12.3426C11.6725 12.2084 11.7683 12.0934 11.9025 12.0742H15.7358C15.8317 12.0551 15.9467 12.1317 15.9467 12.2276V28.3851H24.8017C24.9952 28.3851 25.0527 28.479 25.0125 28.6534L24.4567 31.9865ZM36.4358 16.9234V20.6609C36.4358 20.8142 36.34 20.8717 36.1292 20.8717C34.8853 20.7951 33.6375 21.0251 32.5067 21.5234C32.1233 21.6959 31.7592 21.9259 31.4717 22.2326V32.0076C31.4717 32.1992 31.395 32.2759 31.2225 32.2759H27.485C27.3317 32.2951 27.1975 32.1992 27.1783 32.0478V21.3509C27.1783 20.8909 27.1783 20.4117 27.1592 19.9134C27.14 19.4151 27.14 18.9167 27.1208 18.4184C27.1017 17.9967 27.0627 17.5751 27.0039 17.1534C26.9847 17.0576 27.0423 16.9617 27.1381 16.9426C27.1573 16.9234 27.1764 16.9234 27.2148 16.9426H30.5689C30.7606 16.9426 30.9139 17.0767 30.9714 17.2492C31.0481 17.3834 31.1056 17.5367 31.1247 17.6901C31.1631 17.8817 31.1995 18.0926 31.2206 18.2842C31.2397 18.4951 31.2608 18.7251 31.2608 18.9742C31.8339 18.3034 32.5258 17.7476 33.3097 17.3259C34.1914 16.8467 35.1689 16.6167 36.1656 16.6359C36.2978 16.6167 36.4148 16.7126 36.4339 16.8467L36.4358 16.9234Z" fill="#561C24"/>
</g>
</g>
<defs>
<clipPath id="clip0_350_2905">
<rect width="189" height="46" fill="white"/>
</clipPath>
<clipPath id="clip1_350_2905">
<rect width="46" height="46" fill="white"/>
</clipPath>
</defs>
</svg>
