<svg width="130" height="46" viewBox="0 0 130 46" fill="none" xmlns="http://www.w3.org/2000/svg">
<g clip-path="url(#clip0_350_2931)">
<path d="M51.72 13C51.86 13 52 13.03 52.14 13.09C52.3 13.15 52.43 13.25 52.53 13.39L60.81 25.81L60 25.78L68.31 13.39C68.53 13.09 68.8 12.96 69.12 13C69.36 13 69.56 13.09 69.72 13.27C69.9 13.43 69.99 13.64 69.99 13.9V33.1C69.99 33.34 69.9 33.55 69.72 33.73C69.54 33.91 69.32 34 69.06 34C68.78 34 68.55 33.91 68.37 33.73C68.19 33.55 68.1 33.34 68.1 33.1V15.73L68.64 15.79L61.05 27.28C60.99 27.4 60.9 27.5 60.78 27.58C60.66 27.64 60.52 27.66 60.36 27.64C60.22 27.66 60.08 27.64 59.94 27.58C59.82 27.5 59.72 27.4 59.64 27.28L52.02 15.67L52.59 15.28V33.1C52.59 33.34 52.5 33.55 52.32 33.73C52.16 33.91 51.95 34 51.69 34C51.43 34 51.22 33.91 51.06 33.73C50.9 33.55 50.82 33.34 50.82 33.1V13.9C50.82 13.66 50.9 13.45 51.06 13.27C51.24 13.09 51.46 13 51.72 13ZM86.6145 18.4C86.8745 18.4 87.0845 18.49 87.2445 18.67C87.4245 18.85 87.5145 19.06 87.5145 19.3V32.53C87.5145 34.15 87.1945 35.51 86.5545 36.61C85.9145 37.73 85.0545 38.57 83.9745 39.13C82.8945 39.71 81.6645 40 80.2845 40C79.4245 40 78.6245 39.9 77.8845 39.7C77.1645 39.52 76.5745 39.28 76.1145 38.98C75.8745 38.84 75.6945 38.67 75.5745 38.47C75.4545 38.27 75.4445 38.06 75.5445 37.84C75.6445 37.56 75.7945 37.37 75.9945 37.27C76.2145 37.19 76.4345 37.2 76.6545 37.3C76.9945 37.48 77.4845 37.7 78.1245 37.96C78.7645 38.22 79.4945 38.35 80.3145 38.35C81.4145 38.35 82.3645 38.12 83.1645 37.66C83.9845 37.2 84.6145 36.53 85.0545 35.65C85.4945 34.79 85.7145 33.76 85.7145 32.56V30.4L85.9245 31.12C85.6245 31.74 85.1945 32.29 84.6345 32.77C84.0945 33.25 83.4645 33.63 82.7445 33.91C82.0445 34.17 81.2945 34.3 80.4945 34.3C79.2945 34.3 78.2945 34.06 77.4945 33.58C76.7145 33.08 76.1345 32.4 75.7545 31.54C75.3745 30.68 75.1845 29.67 75.1845 28.51V19.3C75.1845 19.06 75.2645 18.85 75.4245 18.67C75.5845 18.49 75.8045 18.4 76.0845 18.4C76.3445 18.4 76.5545 18.49 76.7145 18.67C76.8945 18.85 76.9845 19.06 76.9845 19.3V28.24C76.9845 29.64 77.2845 30.72 77.8845 31.48C78.5045 32.24 79.5045 32.62 80.8845 32.62C81.7445 32.62 82.5345 32.42 83.2545 32.02C83.9745 31.6 84.5645 31.06 85.0245 30.4C85.4845 29.72 85.7145 29 85.7145 28.24V19.3C85.7145 19.06 85.7945 18.85 85.9545 18.67C86.1345 18.49 86.3545 18.4 86.6145 18.4ZM98.4752 34.3C96.9552 34.32 95.6352 34.08 94.5152 33.58C93.3952 33.08 92.3252 32.33 91.3052 31.33C91.2052 31.25 91.1152 31.15 91.0352 31.03C90.9752 30.91 90.9452 30.77 90.9452 30.61C90.9452 30.37 91.0352 30.15 91.2152 29.95C91.4152 29.75 91.6352 29.65 91.8752 29.65C92.1152 29.65 92.3352 29.75 92.5352 29.95C93.3152 30.79 94.1952 31.43 95.1752 31.87C96.1752 32.31 97.2452 32.53 98.3852 32.53C99.3452 32.53 100.195 32.38 100.935 32.08C101.695 31.78 102.295 31.35 102.735 30.79C103.175 30.23 103.395 29.58 103.395 28.84C103.395 27.92 103.145 27.18 102.645 26.62C102.145 26.04 101.485 25.57 100.665 25.21C99.8452 24.83 98.9352 24.49 97.9352 24.19C97.1152 23.95 96.3352 23.68 95.5952 23.38C94.8552 23.06 94.1952 22.68 93.6152 22.24C93.0352 21.78 92.5852 21.22 92.2652 20.56C91.9452 19.9 91.7852 19.1 91.7852 18.16C91.7852 17.1 92.0652 16.16 92.6252 15.34C93.1852 14.52 93.9752 13.88 94.9952 13.42C96.0352 12.94 97.2352 12.7 98.5952 12.7C99.7752 12.7 100.905 12.9 101.985 13.3C103.085 13.7 103.955 14.29 104.595 15.07C104.895 15.39 105.045 15.68 105.045 15.94C105.045 16.14 104.945 16.34 104.745 16.54C104.545 16.74 104.325 16.84 104.085 16.84C103.885 16.84 103.715 16.77 103.575 16.63C103.235 16.21 102.805 15.84 102.285 15.52C101.765 15.18 101.185 14.92 100.545 14.74C99.9252 14.56 99.2752 14.47 98.5952 14.47C97.6552 14.47 96.8052 14.62 96.0452 14.92C95.3052 15.2 94.7152 15.61 94.2752 16.15C93.8552 16.69 93.6452 17.34 93.6452 18.1C93.6452 18.94 93.8852 19.63 94.3652 20.17C94.8452 20.71 95.4752 21.16 96.2552 21.52C97.0352 21.86 97.8652 22.18 98.7452 22.48C99.6052 22.72 100.425 23 101.205 23.32C102.005 23.62 102.705 24 103.305 24.46C103.925 24.92 104.405 25.5 104.745 26.2C105.105 26.9 105.285 27.78 105.285 28.84C105.285 29.86 104.995 30.78 104.415 31.6C103.835 32.42 103.035 33.07 102.015 33.55C101.015 34.03 99.8352 34.28 98.4752 34.3ZM121.651 18.61C121.911 18.61 122.121 18.7 122.281 18.88C122.461 19.06 122.551 19.28 122.551 19.54V39.1C122.551 39.34 122.461 39.55 122.281 39.73C122.101 39.91 121.891 40 121.651 40C121.391 40 121.171 39.91 120.991 39.73C120.831 39.55 120.751 39.34 120.751 39.1V29.53L121.261 29.11C121.261 29.67 121.111 30.26 120.811 30.88C120.511 31.48 120.081 32.04 119.521 32.56C118.981 33.08 118.341 33.5 117.601 33.82C116.881 34.14 116.101 34.3 115.261 34.3C113.921 34.3 112.711 33.95 111.631 33.25C110.571 32.55 109.731 31.6 109.111 30.4C108.491 29.2 108.181 27.83 108.181 26.29C108.181 24.77 108.491 23.41 109.111 22.21C109.731 20.99 110.571 20.04 111.631 19.36C112.691 18.66 113.891 18.31 115.231 18.31C116.051 18.31 116.831 18.46 117.571 18.76C118.311 19.06 118.961 19.47 119.521 19.99C120.101 20.51 120.551 21.11 120.871 21.79C121.211 22.45 121.381 23.14 121.381 23.86L120.751 23.41V19.54C120.751 19.28 120.831 19.06 120.991 18.88C121.171 18.7 121.391 18.61 121.651 18.61ZM115.411 32.62C116.491 32.62 117.431 32.35 118.231 31.81C119.051 31.25 119.691 30.5 120.151 29.56C120.631 28.6 120.871 27.51 120.871 26.29C120.871 25.09 120.631 24.02 120.151 23.08C119.691 22.12 119.051 21.37 118.231 20.83C117.411 20.27 116.471 19.99 115.411 19.99C114.371 19.99 113.431 20.27 112.591 20.83C111.771 21.37 111.121 22.12 110.641 23.08C110.181 24.02 109.951 25.09 109.951 26.29C109.951 27.49 110.181 28.57 110.641 29.53C111.121 30.49 111.771 31.25 112.591 31.81C113.431 32.35 114.371 32.62 115.411 32.62ZM129.254 33.1C129.254 33.34 129.164 33.55 128.984 33.73C128.804 33.91 128.594 34 128.354 34C128.094 34 127.874 33.91 127.694 33.73C127.534 33.55 127.454 33.34 127.454 33.1V12.7C127.454 12.46 127.544 12.25 127.724 12.07C127.904 11.89 128.114 11.8 128.354 11.8C128.614 11.8 128.824 11.89 128.984 12.07C129.164 12.25 129.254 12.46 129.254 12.7V33.1Z" fill="black"/>
<path d="M32.4458 10.8796C32.2216 10.8796 32.0721 10.9098 31.9211 10.9472V10.9702H31.9441C32.0491 11.1642 32.2216 11.3152 32.3553 11.4949C32.4602 11.6976 32.5493 11.906 32.6471 12.1087L32.6773 12.0785C32.857 11.9506 32.9475 11.7493 32.9475 11.4417C32.8728 11.3511 32.857 11.2548 32.7908 11.1714C32.7161 11.0435 32.5508 10.9774 32.4458 10.8796ZM12.0592 36.1696H10.2853C10.2316 33.3461 10.0594 30.5261 9.76927 27.7171H9.75489L7.05239 36.1696H5.69683L3.01589 27.7171H2.99289C2.78455 30.5302 2.65991 33.349 2.61914 36.1696H1.00195C1.08952 32.6249 1.35194 29.0868 1.78827 25.568H3.98908L6.54927 33.3549H6.56364L9.14683 25.568H11.2427C11.707 29.432 11.9845 32.9654 12.0664 36.1696H12.0592ZM19.7556 28.3467C19.0368 32.2696 18.078 35.1231 16.9036 36.8969C15.975 38.2669 14.9644 38.9554 13.8633 38.9554C13.5715 38.9554 13.2121 38.8649 12.778 38.6852V37.7422C12.995 37.7724 13.2423 37.7939 13.5197 37.7939C14.0358 37.7939 14.4483 37.6444 14.7631 37.367C15.1369 37.022 15.3252 36.6339 15.3252 36.2069C15.3252 35.9079 15.1829 35.3085 14.8839 34.3957L12.9447 28.3467H14.6898L16.0828 32.8691C16.3976 33.9026 16.5327 34.6142 16.4723 35.0253C17.2428 32.9884 17.7747 30.7574 18.0751 28.3467H19.7556ZM43.3838 36.1696H38.3381V25.568H40.0373V34.8672H43.3838V36.1696ZM37.02 36.4254L35.0736 35.4666C35.2461 35.3243 35.41 35.1676 35.5609 34.9879C36.3918 34.0219 36.8043 32.5773 36.8043 30.6754C36.8043 27.1636 35.4272 25.4127 32.6715 25.4127C31.3231 25.4127 30.268 25.8541 29.5119 26.7453C28.6882 27.7185 28.2685 29.156 28.2685 31.0506C28.2685 32.9151 28.635 34.2778 29.3696 35.1532C30.0438 35.9324 31.0543 36.3291 32.4099 36.3291C32.9116 36.3291 33.3759 36.2687 33.7956 36.1422L36.3343 37.6243L37.03 36.4269L37.02 36.4254ZM30.7093 34.0435C30.2752 33.3549 30.0653 32.2466 30.0653 30.7186C30.0653 28.0462 30.8746 26.7137 32.499 26.7137C33.3457 26.7137 33.9739 27.0357 34.3706 27.6725C34.7976 28.3683 35.0146 29.4622 35.0146 30.9744C35.0146 33.6626 34.1981 35.0181 32.581 35.0181C31.7271 35.0181 31.1061 34.6961 30.7021 34.0593L30.7093 34.0435ZM27.5339 33.2356C27.5339 34.1341 27.2047 34.8758 26.5377 35.4436C25.8793 36.0201 25.0025 36.3119 23.887 36.3119C22.8462 36.3119 21.85 35.9827 20.8696 35.3229L21.3268 34.4101C22.1648 34.8298 22.921 35.0397 23.611 35.0397C24.2478 35.0397 24.7495 34.8974 25.1088 34.6199C25.4682 34.3353 25.6853 33.9386 25.6853 33.4369C25.6853 32.8072 25.244 32.2682 24.4418 31.8197C23.7001 31.4086 22.2108 30.5619 22.2108 30.5619C21.4015 29.9711 21.0048 29.3414 21.0048 28.3007C21.0048 27.4396 21.3038 26.7511 21.9032 26.2264C22.5098 25.6873 23.2803 25.4257 24.2391 25.4257C25.1931 25.4174 26.1282 25.6909 26.9273 26.212L26.5161 27.1248C25.8738 26.842 25.181 26.6919 24.4792 26.6835C23.933 26.6835 23.5132 26.8186 23.2214 27.0802C22.9296 27.3419 22.7499 27.6711 22.7499 28.0836C22.7499 28.7132 23.1998 29.2523 24.0221 29.7152C24.7782 30.1263 26.2976 30.996 26.2976 30.996C27.1285 31.5796 27.5411 32.2092 27.5411 33.2342L27.5339 33.2356ZM45.5113 22.0131C44.4849 21.9901 43.6914 22.095 43.0258 22.3796C42.839 22.4544 42.5313 22.4544 42.5011 22.6944C42.6061 22.7994 42.6205 22.9647 42.711 23.1056C42.8677 23.36 43.1308 23.705 43.378 23.8847C43.6483 24.0946 43.9171 24.3044 44.1945 24.4841C44.6962 24.7917 45.2583 24.9714 45.7513 25.2776C46.0288 25.4573 46.3134 25.6887 46.5894 25.8771C46.7317 25.9748 46.8208 26.1473 47.0005 26.2062V26.1689C46.91 26.0568 46.8884 25.8914 46.7978 25.7577C46.6699 25.6298 46.5434 25.5177 46.4155 25.3912C46.0406 24.8935 45.5911 24.4566 45.0829 24.096C44.6718 23.8186 43.7733 23.429 43.608 22.9575L43.585 22.9273C43.8625 22.9043 44.1916 22.7994 44.4605 22.7246C44.8946 22.6125 45.2985 22.6341 45.7485 22.5219C45.9549 22.4684 46.1596 22.4084 46.3623 22.3423V22.2301C46.1308 21.9987 45.9583 21.6839 45.7183 21.4668C45.0568 20.888 44.3507 20.3621 43.6066 19.8942C43.2026 19.6326 42.6938 19.4673 42.2668 19.2502C42.1173 19.1754 41.8557 19.1381 41.7723 19.0101C41.5409 18.7255 41.4058 18.3589 41.2405 18.0211C40.8644 17.2903 40.5149 16.5462 40.1925 15.7901C39.9611 15.2884 39.826 14.7939 39.5413 14.3296C38.2231 12.1504 36.7856 10.8336 34.5848 9.53844C34.1133 9.26819 33.5441 9.15606 32.9446 9.01375C32.6226 8.99937 32.3078 8.97638 31.9858 8.962C31.776 8.87144 31.5747 8.63281 31.395 8.51206C30.6619 8.04775 28.7745 7.05156 28.2426 8.36975C27.8976 9.20781 28.7515 10.0243 29.0519 10.4441C29.269 10.7431 29.5464 11.0737 29.7031 11.4029C29.7936 11.6271 29.8152 11.86 29.9058 12.0914C30.1085 12.6535 30.3025 13.2817 30.5728 13.8064C30.7151 14.0766 30.8646 14.3598 31.0443 14.5999C31.1492 14.7422 31.3289 14.8026 31.3663 15.034C31.1866 15.2956 31.1722 15.678 31.0745 15.9928C30.6101 17.4447 30.7898 19.2344 31.441 20.3053C31.6509 20.6273 32.1368 21.3317 32.7894 21.0614C33.3658 20.83 33.2393 20.1026 33.4032 19.4586C33.4406 19.3019 33.4176 19.2042 33.4938 19.0992V19.1294C33.6806 19.4888 33.8603 19.8338 34.0256 20.1932C34.4152 20.8228 35.111 21.474 35.6874 21.9081C35.995 22.1396 36.2336 22.5378 36.616 22.6786V22.6413H36.5858C36.5039 22.5291 36.399 22.4759 36.294 22.3868C36.0513 22.1463 35.826 21.8888 35.6198 21.6163C35.088 20.8976 34.6093 20.1041 34.1895 19.2876C33.9873 18.8841 33.8027 18.4721 33.6361 18.0527C33.5613 17.9032 33.5613 17.6704 33.4334 17.5956C33.2393 17.8731 32.9547 18.1117 32.8196 18.4639C32.5723 19.0101 32.5493 19.6915 32.453 20.3959C32.4085 20.4102 32.43 20.3959 32.4085 20.4261C31.9973 20.3211 31.855 19.9014 31.7041 19.542C31.3145 18.6292 31.2541 17.1687 31.5848 16.1207C31.6753 15.8505 32.0563 15.0052 31.9068 14.7508C31.8248 14.5036 31.5704 14.3612 31.4353 14.1672C31.2628 13.9271 31.0903 13.6209 30.971 13.3507C30.6633 12.6319 30.5138 11.8384 30.1775 11.1197C30.028 10.7905 29.7577 10.4455 29.5406 10.1393C29.2934 9.79431 29.0246 9.5485 28.8363 9.14312C28.7687 9.00081 28.6796 8.76937 28.7845 8.61844C28.8075 8.5135 28.8593 8.47612 28.9642 8.44594C29.1295 8.30362 29.6082 8.48331 29.7735 8.56525C30.245 8.75212 30.6418 8.93181 31.0385 9.20206C31.2182 9.33 31.4123 9.56862 31.6451 9.63619H31.9154C32.3265 9.72675 32.7836 9.65919 33.166 9.7785C33.8474 9.99556 34.4612 10.3104 35.0146 10.6539C36.7071 11.7404 38.0835 13.2536 39.0051 15.0412C39.1618 15.333 39.2294 15.6033 39.3717 15.9094C39.6333 16.5463 39.9711 17.1816 40.24 17.7882C40.5088 18.3949 40.7646 19.0087 41.1528 19.5104C41.3468 19.7806 42.1116 19.9215 42.4623 20.0566C42.7168 20.1759 43.1135 20.2809 43.3378 20.416C43.7791 20.6862 44.2132 20.9924 44.6258 21.2914C44.8356 21.4338 45.4725 21.7558 45.5098 22.0102L45.5113 22.0131Z" fill="#561C24"/>
</g>
<defs>
<clipPath id="clip0_350_2931">
<rect width="130" height="46" fill="white"/>
</clipPath>
</defs>
</svg>
