<svg width="197" height="46" viewBox="0 0 197 46" fill="none" xmlns="http://www.w3.org/2000/svg">
<g clip-path="url(#clip0_350_2909)">
<path d="M58.83 13C59.95 13 60.94 13.26 61.8 13.78C62.66 14.28 63.34 14.98 63.84 15.88C64.34 16.78 64.59 17.81 64.59 18.97C64.59 20.13 64.34 21.18 63.84 22.12C63.34 23.04 62.66 23.77 61.8 24.31C60.94 24.85 59.95 25.12 58.83 25.12H52.47L52.62 24.82V33.1C52.62 33.34 52.53 33.55 52.35 33.73C52.17 33.91 51.96 34 51.72 34C51.44 34 51.22 33.91 51.06 33.73C50.9 33.55 50.82 33.34 50.82 33.1V13.9C50.82 13.66 50.91 13.45 51.09 13.27C51.27 13.09 51.48 13 51.72 13H58.83ZM58.83 23.38C59.61 23.38 60.29 23.19 60.87 22.81C61.45 22.41 61.9 21.88 62.22 21.22C62.56 20.54 62.73 19.79 62.73 18.97C62.73 18.15 62.56 17.43 62.22 16.81C61.9 16.17 61.45 15.67 60.87 15.31C60.29 14.95 59.61 14.77 58.83 14.77H52.47L52.62 14.5V23.56L52.44 23.38H58.83ZM75.2311 18.55C76.4911 18.55 77.5111 18.82 78.2911 19.36C79.0711 19.9 79.6411 20.63 80.0011 21.55C80.3811 22.47 80.5711 23.49 80.5711 24.61V33.1C80.5711 33.34 80.4811 33.55 80.3011 33.73C80.1211 33.91 79.9111 34 79.6711 34C79.3911 34 79.1711 33.91 79.0111 33.73C78.8511 33.55 78.7711 33.34 78.7711 33.1V24.61C78.7711 23.79 78.6411 23.05 78.3811 22.39C78.1411 21.73 77.7411 21.21 77.1811 20.83C76.6211 20.43 75.8711 20.23 74.9311 20.23C74.0911 20.23 73.2911 20.43 72.5311 20.83C71.7911 21.21 71.1911 21.73 70.7311 22.39C70.2711 23.05 70.0411 23.79 70.0411 24.61V33.1C70.0411 33.34 69.9511 33.55 69.7711 33.73C69.5911 33.91 69.3811 34 69.1411 34C68.8611 34 68.6411 33.91 68.4811 33.73C68.3211 33.55 68.2411 33.34 68.2411 33.1V12.7C68.2411 12.46 68.3211 12.25 68.4811 12.07C68.6611 11.89 68.8811 11.8 69.1411 11.8C69.4011 11.8 69.6111 11.89 69.7711 12.07C69.9511 12.25 70.0411 12.46 70.0411 12.7V22.42L69.3511 23.47C69.3911 22.85 69.5811 22.25 69.9211 21.67C70.2811 21.07 70.7411 20.54 71.3011 20.08C71.8611 19.6 72.4811 19.23 73.1611 18.97C73.8411 18.69 74.5311 18.55 75.2311 18.55ZM99.5719 26.32C99.5719 27.84 99.2419 29.21 98.5819 30.43C97.9219 31.63 97.0219 32.58 95.8819 33.28C94.7419 33.96 93.4419 34.3 91.9819 34.3C90.5619 34.3 89.2719 33.96 88.1119 33.28C86.9719 32.58 86.0619 31.63 85.3819 30.43C84.7219 29.21 84.3919 27.84 84.3919 26.32C84.3919 24.78 84.7219 23.41 85.3819 22.21C86.0619 21.01 86.9719 20.06 88.1119 19.36C89.2719 18.66 90.5619 18.31 91.9819 18.31C93.4419 18.31 94.7419 18.66 95.8819 19.36C97.0219 20.06 97.9219 21.01 98.5819 22.21C99.2419 23.41 99.5719 24.78 99.5719 26.32ZM97.7719 26.32C97.7719 25.1 97.5219 24.02 97.0219 23.08C96.5219 22.12 95.8319 21.37 94.9519 20.83C94.0919 20.27 93.1019 19.99 91.9819 19.99C90.9019 19.99 89.9219 20.27 89.0419 20.83C88.1619 21.37 87.4619 22.12 86.9419 23.08C86.4419 24.02 86.1919 25.1 86.1919 26.32C86.1919 27.54 86.4419 28.62 86.9419 29.56C87.4619 30.5 88.1619 31.25 89.0419 31.81C89.9219 32.35 90.9019 32.62 91.9819 32.62C93.1019 32.62 94.0919 32.35 94.9519 31.81C95.8319 31.25 96.5219 30.5 97.0219 29.56C97.5219 28.62 97.7719 27.54 97.7719 26.32ZM102.407 18.73H109.397C109.637 18.73 109.837 18.82 109.997 19C110.157 19.16 110.237 19.36 110.237 19.6C110.237 19.82 110.157 20.01 109.997 20.17C109.837 20.33 109.637 20.41 109.397 20.41H102.407C102.167 20.41 101.957 20.33 101.777 20.17C101.617 19.99 101.537 19.79 101.537 19.57C101.537 19.33 101.617 19.13 101.777 18.97C101.957 18.81 102.167 18.73 102.407 18.73ZM105.497 14.5C105.757 14.5 105.967 14.59 106.127 14.77C106.307 14.95 106.397 15.16 106.397 15.4V30.46C106.397 31.02 106.467 31.44 106.607 31.72C106.767 32 106.967 32.19 107.207 32.29C107.447 32.37 107.687 32.41 107.927 32.41C108.087 32.41 108.227 32.39 108.347 32.35C108.487 32.29 108.637 32.26 108.797 32.26C108.977 32.26 109.127 32.33 109.247 32.47C109.387 32.61 109.457 32.79 109.457 33.01C109.457 33.29 109.297 33.53 108.977 33.73C108.657 33.91 108.277 34 107.837 34C107.657 34 107.387 33.99 107.027 33.97C106.667 33.93 106.297 33.82 105.917 33.64C105.537 33.44 105.217 33.1 104.957 32.62C104.717 32.14 104.597 31.45 104.597 30.55V15.4C104.597 15.16 104.677 14.95 104.837 14.77C105.017 14.59 105.237 14.5 105.497 14.5ZM127.697 26.32C127.697 27.84 127.367 29.21 126.707 30.43C126.047 31.63 125.147 32.58 124.007 33.28C122.867 33.96 121.567 34.3 120.107 34.3C118.687 34.3 117.397 33.96 116.237 33.28C115.097 32.58 114.187 31.63 113.507 30.43C112.847 29.21 112.517 27.84 112.517 26.32C112.517 24.78 112.847 23.41 113.507 22.21C114.187 21.01 115.097 20.06 116.237 19.36C117.397 18.66 118.687 18.31 120.107 18.31C121.567 18.31 122.867 18.66 124.007 19.36C125.147 20.06 126.047 21.01 126.707 22.21C127.367 23.41 127.697 24.78 127.697 26.32ZM125.897 26.32C125.897 25.1 125.647 24.02 125.147 23.08C124.647 22.12 123.957 21.37 123.077 20.83C122.217 20.27 121.227 19.99 120.107 19.99C119.027 19.99 118.047 20.27 117.167 20.83C116.287 21.37 115.587 22.12 115.067 23.08C114.567 24.02 114.317 25.1 114.317 26.32C114.317 27.54 114.567 28.62 115.067 29.56C115.587 30.5 116.287 31.25 117.167 31.81C118.047 32.35 119.027 32.62 120.107 32.62C121.227 32.62 122.217 32.35 123.077 31.81C123.957 31.25 124.647 30.5 125.147 29.56C125.647 28.62 125.897 27.54 125.897 26.32ZM130.652 31.57C130.492 31.33 130.412 31.1 130.412 30.88C130.432 30.64 130.562 30.45 130.802 30.31C130.962 30.17 131.142 30.11 131.342 30.13C131.562 30.15 131.762 30.25 131.942 30.43C132.482 31.13 133.132 31.7 133.892 32.14C134.672 32.56 135.592 32.77 136.652 32.77C137.212 32.77 137.762 32.68 138.302 32.5C138.862 32.3 139.322 32.01 139.682 31.63C140.042 31.23 140.222 30.73 140.222 30.13C140.222 29.51 140.042 29.01 139.682 28.63C139.322 28.25 138.852 27.95 138.272 27.73C137.712 27.51 137.112 27.32 136.472 27.16C135.792 26.98 135.132 26.78 134.492 26.56C133.852 26.32 133.282 26.03 132.782 25.69C132.302 25.33 131.912 24.9 131.612 24.4C131.312 23.9 131.162 23.29 131.162 22.57C131.162 21.73 131.392 20.99 131.852 20.35C132.312 19.71 132.932 19.21 133.712 18.85C134.512 18.49 135.412 18.31 136.412 18.31C136.912 18.31 137.452 18.38 138.032 18.52C138.612 18.64 139.182 18.85 139.742 19.15C140.302 19.45 140.802 19.86 141.242 20.38C141.422 20.56 141.512 20.77 141.512 21.01C141.512 21.23 141.412 21.43 141.212 21.61C141.052 21.73 140.862 21.79 140.642 21.79C140.442 21.79 140.272 21.71 140.132 21.55C139.652 21.01 139.082 20.6 138.422 20.32C137.762 20.04 137.052 19.9 136.292 19.9C135.712 19.9 135.162 20 134.642 20.2C134.142 20.38 133.722 20.66 133.382 21.04C133.042 21.42 132.872 21.92 132.872 22.54C132.912 23.12 133.112 23.59 133.472 23.95C133.852 24.31 134.342 24.61 134.942 24.85C135.562 25.09 136.252 25.31 137.012 25.51C137.652 25.67 138.262 25.86 138.842 26.08C139.442 26.3 139.962 26.58 140.402 26.92C140.862 27.24 141.222 27.65 141.482 28.15C141.762 28.65 141.902 29.28 141.902 30.04C141.902 30.92 141.652 31.68 141.152 32.32C140.672 32.96 140.022 33.45 139.202 33.79C138.382 34.13 137.472 34.3 136.472 34.3C135.392 34.3 134.342 34.09 133.322 33.67C132.322 33.25 131.432 32.55 130.652 31.57ZM152.575 18.55C153.835 18.55 154.855 18.82 155.635 19.36C156.415 19.9 156.985 20.63 157.345 21.55C157.725 22.47 157.915 23.49 157.915 24.61V33.1C157.915 33.34 157.825 33.55 157.645 33.73C157.465 33.91 157.255 34 157.015 34C156.735 34 156.515 33.91 156.355 33.73C156.195 33.55 156.115 33.34 156.115 33.1V24.61C156.115 23.79 155.985 23.05 155.725 22.39C155.485 21.73 155.085 21.21 154.525 20.83C153.965 20.43 153.215 20.23 152.275 20.23C151.435 20.23 150.635 20.43 149.875 20.83C149.135 21.21 148.535 21.73 148.075 22.39C147.615 23.05 147.385 23.79 147.385 24.61V33.1C147.385 33.34 147.295 33.55 147.115 33.73C146.935 33.91 146.725 34 146.485 34C146.205 34 145.985 33.91 145.825 33.73C145.665 33.55 145.585 33.34 145.585 33.1V12.7C145.585 12.46 145.665 12.25 145.825 12.07C146.005 11.89 146.225 11.8 146.485 11.8C146.745 11.8 146.955 11.89 147.115 12.07C147.295 12.25 147.385 12.46 147.385 12.7V22.42L146.695 23.47C146.735 22.85 146.925 22.25 147.265 21.67C147.625 21.07 148.085 20.54 148.645 20.08C149.205 19.6 149.825 19.23 150.505 18.97C151.185 18.69 151.875 18.55 152.575 18.55ZM176.916 26.32C176.916 27.84 176.586 29.21 175.926 30.43C175.266 31.63 174.366 32.58 173.226 33.28C172.086 33.96 170.786 34.3 169.326 34.3C167.906 34.3 166.616 33.96 165.456 33.28C164.316 32.58 163.406 31.63 162.726 30.43C162.066 29.21 161.736 27.84 161.736 26.32C161.736 24.78 162.066 23.41 162.726 22.21C163.406 21.01 164.316 20.06 165.456 19.36C166.616 18.66 167.906 18.31 169.326 18.31C170.786 18.31 172.086 18.66 173.226 19.36C174.366 20.06 175.266 21.01 175.926 22.21C176.586 23.41 176.916 24.78 176.916 26.32ZM175.116 26.32C175.116 25.1 174.866 24.02 174.366 23.08C173.866 22.12 173.176 21.37 172.296 20.83C171.436 20.27 170.446 19.99 169.326 19.99C168.246 19.99 167.266 20.27 166.386 20.83C165.506 21.37 164.806 22.12 164.286 23.08C163.786 24.02 163.536 25.1 163.536 26.32C163.536 27.54 163.786 28.62 164.286 29.56C164.806 30.5 165.506 31.25 166.386 31.81C167.266 32.35 168.246 32.62 169.326 32.62C170.446 32.62 171.436 32.35 172.296 31.81C173.176 31.25 173.866 30.5 174.366 29.56C174.866 28.62 175.116 27.54 175.116 26.32ZM188.031 18.55C189.391 18.55 190.591 18.89 191.631 19.57C192.691 20.23 193.531 21.15 194.151 22.33C194.771 23.49 195.081 24.83 195.081 26.35C195.081 27.87 194.771 29.22 194.151 30.4C193.531 31.58 192.691 32.51 191.631 33.19C190.571 33.87 189.381 34.21 188.061 34.21C187.361 34.21 186.691 34.11 186.051 33.91C185.431 33.69 184.861 33.4 184.341 33.04C183.821 32.68 183.361 32.26 182.961 31.78C182.561 31.28 182.241 30.74 182.001 30.16L182.541 29.77V39.1C182.541 39.34 182.451 39.55 182.271 39.73C182.111 39.91 181.901 40 181.641 40C181.381 40 181.161 39.91 180.981 39.73C180.821 39.55 180.741 39.34 180.741 39.1V19.54C180.741 19.28 180.821 19.06 180.981 18.88C181.141 18.7 181.361 18.61 181.641 18.61C181.901 18.61 182.111 18.7 182.271 18.88C182.451 19.06 182.541 19.28 182.541 19.54V22.78L182.121 22.54C182.321 21.92 182.611 21.37 182.991 20.89C183.391 20.39 183.851 19.97 184.371 19.63C184.891 19.27 185.461 19 186.081 18.82C186.701 18.64 187.351 18.55 188.031 18.55ZM187.881 20.23C186.801 20.23 185.851 20.5 185.031 21.04C184.211 21.56 183.561 22.28 183.081 23.2C182.621 24.1 182.391 25.15 182.391 26.35C182.391 27.53 182.621 28.59 183.081 29.53C183.561 30.47 184.211 31.21 185.031 31.75C185.851 32.27 186.801 32.53 187.881 32.53C188.941 32.53 189.871 32.27 190.671 31.75C191.491 31.21 192.141 30.47 192.621 29.53C193.101 28.59 193.341 27.53 193.341 26.35C193.341 25.17 193.101 24.12 192.621 23.2C192.141 22.28 191.491 21.56 190.671 21.04C189.871 20.5 188.941 20.23 187.881 20.23Z" fill="black"/>
<path d="M20.0283 20.0867C20.0573 20.6687 19.8814 21.2424 19.5312 21.7082C19.1811 22.1739 18.6787 22.5022 18.1116 22.6359C17.1109 22.9303 16.0676 23.0534 15.0258 23.0001C14.7574 23.0001 14.7383 22.8276 14.7383 22.6359V17.7484C14.7383 17.6142 14.8724 17.3842 14.9491 17.3842C16.0455 17.2619 17.1549 17.3332 18.2266 17.5951C18.7659 17.7429 19.2386 18.0705 19.5662 18.5236C19.8939 18.9768 20.0569 19.5283 20.0283 20.0867Z" fill="#561C24"/>
<path d="M32.584 3.83398H13.4173C10.8757 3.83398 8.4381 4.84365 6.64088 6.64088C4.84365 8.4381 3.83398 10.8757 3.83398 13.4173V32.584C3.83398 35.1256 4.84365 37.5632 6.64088 39.3604C8.4381 41.1576 10.8757 42.1673 13.4173 42.1673H32.584C35.1256 42.1673 37.5632 41.1576 39.3604 39.3604C41.1576 37.5632 42.1673 35.1256 42.1673 32.584V13.4173C42.1673 10.8757 41.1576 8.4381 39.3604 6.64088C37.5632 4.84365 35.1256 3.83398 32.584 3.83398ZM21.084 24.9173C20.1174 25.5332 19.0084 25.8897 17.864 25.9523H15.2957C14.759 25.9523 14.759 25.9523 14.759 26.4698V30.9165C14.759 31.2998 14.644 31.4148 14.2607 31.4148H11.7307C11.3665 31.4148 11.2707 31.2806 11.2707 30.9356V14.7782C11.2707 14.3948 11.2707 14.2798 11.7498 14.2798H17.749C18.844 14.3095 19.9131 14.6197 20.854 15.1807C21.6666 15.6385 22.3431 16.3038 22.8145 17.1086C23.2859 17.9133 23.5353 18.8288 23.5373 19.7615C23.6482 20.764 23.4773 21.7776 23.044 22.6883C22.6106 23.5991 21.9318 24.371 21.084 24.9173ZM32.4307 31.2423C30.7633 31.8893 28.9391 32.0163 27.1981 31.6065C26.6768 31.4915 26.1632 31.3382 25.6648 31.1465C25.5878 31.1103 25.52 31.057 25.4669 30.9905C25.4137 30.924 25.3765 30.8463 25.3581 30.7631V27.869C25.9715 28.099 26.5465 28.3673 27.1407 28.559C28.1364 28.8772 29.1907 28.9689 30.2265 28.8273C30.4316 28.789 30.6328 28.7257 30.8207 28.6356C30.933 28.5865 31.0306 28.509 31.1041 28.4108C31.1775 28.3126 31.2242 28.197 31.2397 28.0754C31.2551 27.9537 31.2388 27.8302 31.1922 27.7167C31.1456 27.6033 31.0705 27.5039 30.974 27.4282C30.5355 27.1246 30.0666 26.8677 29.5748 26.6615C28.789 26.2782 27.984 25.9715 27.2365 25.5307C26.5616 25.2023 26.0105 24.665 25.6653 23.9986C25.32 23.3322 25.1988 22.5722 25.3198 21.8315C25.4173 21.1186 25.7135 20.4475 26.1744 19.895C26.6354 19.3425 27.2426 18.9309 27.9265 18.7073C29.1593 18.2912 30.4745 18.1794 31.7598 18.3815C32.3731 18.3815 32.9673 18.6115 33.5807 18.7265C33.9065 18.7265 34.0215 18.9948 34.0023 19.3207V21.5632C34.0023 21.9848 33.9065 22.0232 33.5231 21.8698C32.3261 21.3156 31.0028 21.0906 29.6898 21.2182C29.5038 21.2398 29.3225 21.2916 29.1532 21.3715C29.0382 21.4166 28.937 21.491 28.8596 21.5873C28.7822 21.6836 28.7313 21.7984 28.7119 21.9204C28.6926 22.0424 28.7054 22.1674 28.7492 22.2829C28.793 22.3984 28.8661 22.5005 28.9615 22.579C29.5154 22.947 30.0981 23.269 30.7057 23.5373C31.434 23.9015 32.2007 24.189 32.9098 24.5915C33.5533 24.8843 34.0864 25.3751 34.4312 25.9924C34.776 26.6096 34.9145 27.3208 34.8265 28.0223C34.7659 28.7221 34.5063 29.3899 34.0784 29.9469C33.6504 30.5039 33.072 30.9268 32.4115 31.1657L32.4307 31.2423Z" fill="#561C24"/>
</g>
<defs>
<clipPath id="clip0_350_2909">
<rect width="197" height="46" fill="white"/>
</clipPath>
</defs>
</svg>
