<svg width="105" height="46" viewBox="0 0 105 46" fill="none" xmlns="http://www.w3.org/2000/svg">
<g clip-path="url(#clip0_350_2954)">
<path d="M58.83 13C59.95 13 60.94 13.26 61.8 13.78C62.66 14.28 63.34 14.98 63.84 15.88C64.34 16.78 64.59 17.81 64.59 18.97C64.59 20.13 64.34 21.18 63.84 22.12C63.34 23.04 62.66 23.77 61.8 24.31C60.94 24.85 59.95 25.12 58.83 25.12H52.47L52.62 24.82V33.1C52.62 33.34 52.53 33.55 52.35 33.73C52.17 33.91 51.96 34 51.72 34C51.44 34 51.22 33.91 51.06 33.73C50.9 33.55 50.82 33.34 50.82 33.1V13.9C50.82 13.66 50.91 13.45 51.09 13.27C51.27 13.09 51.48 13 51.72 13H58.83ZM58.83 23.38C59.61 23.38 60.29 23.19 60.87 22.81C61.45 22.41 61.9 21.88 62.22 21.22C62.56 20.54 62.73 19.79 62.73 18.97C62.73 18.15 62.56 17.43 62.22 16.81C61.9 16.17 61.45 15.67 60.87 15.31C60.29 14.95 59.61 14.77 58.83 14.77H52.47L52.62 14.5V23.56L52.44 23.38H58.83ZM69.6511 13C69.8911 13 70.1011 13.09 70.2811 13.27C70.4811 13.45 70.5811 13.67 70.5811 13.93V33.07C70.5611 33.33 70.4511 33.55 70.2511 33.73C70.0711 33.91 69.8611 34 69.6211 34C69.3411 34 69.1111 33.91 68.9311 33.73C68.7711 33.55 68.6911 33.33 68.6911 33.07V13.93C68.6911 13.67 68.7811 13.45 68.9611 13.27C69.1411 13.09 69.3711 13 69.6511 13ZM83.7211 13C84.0011 13 84.2211 13.09 84.3811 13.27C84.5611 13.45 84.6511 13.67 84.6511 13.93V33.07C84.6311 33.33 84.5311 33.55 84.3511 33.73C84.1911 33.91 83.9711 34 83.6911 34C83.4311 34 83.2111 33.91 83.0311 33.73C82.8511 33.55 82.7611 33.33 82.7611 33.07V13.93C82.7611 13.67 82.8511 13.45 83.0311 13.27C83.2311 13.09 83.4611 13 83.7211 13ZM69.5011 22.39H83.7511L83.7211 24.13H69.3811L69.5011 22.39ZM98.2929 13C99.4129 13 100.403 13.26 101.263 13.78C102.123 14.28 102.803 14.98 103.303 15.88C103.803 16.78 104.053 17.81 104.053 18.97C104.053 20.13 103.803 21.18 103.303 22.12C102.803 23.04 102.123 23.77 101.263 24.31C100.403 24.85 99.4129 25.12 98.2929 25.12H91.9329L92.0829 24.82V33.1C92.0829 33.34 91.9929 33.55 91.8129 33.73C91.6329 33.91 91.4229 34 91.1829 34C90.9029 34 90.6829 33.91 90.5229 33.73C90.3629 33.55 90.2829 33.34 90.2829 33.1V13.9C90.2829 13.66 90.3729 13.45 90.5529 13.27C90.7329 13.09 90.9429 13 91.1829 13H98.2929ZM98.2929 23.38C99.0729 23.38 99.7529 23.19 100.333 22.81C100.913 22.41 101.363 21.88 101.683 21.22C102.023 20.54 102.193 19.79 102.193 18.97C102.193 18.15 102.023 17.43 101.683 16.81C101.363 16.17 100.913 15.67 100.333 15.31C99.7529 14.95 99.0729 14.77 98.2929 14.77H91.9329L92.0829 14.5V23.56L91.9029 23.38H98.2929Z" fill="black"/>
<g clip-path="url(#clip1_350_2954)">
<path d="M20.6942 8.7975C19.6058 8.79637 18.5277 9.00964 17.5217 9.42514C16.5156 9.84063 15.6013 10.4502 14.8308 11.2191C14.0603 11.988 13.4488 12.9011 13.0312 13.9062C12.6136 14.9114 12.3981 15.989 12.397 17.0775V35.4976C12.3955 37.1398 11.7421 38.7142 10.5803 39.8749C9.41857 41.0355 7.84356 41.6875 6.20138 41.6875C5.38775 41.6883 4.58195 41.5288 3.82997 41.2181C3.078 40.9074 2.39457 40.4517 1.81872 39.8769C1.24287 39.3021 0.78587 38.6196 0.473814 37.8682C0.161757 37.1168 0.00075475 36.3113 0 35.4976C0 34.9017 0.236717 34.3303 0.658076 33.9089C1.07944 33.4875 1.65092 33.2508 2.24681 33.2508C2.8427 33.2508 3.41419 33.4875 3.83555 33.9089C4.25691 34.3303 4.49362 34.9017 4.49362 35.4976C4.49362 35.9502 4.6734 36.3842 4.99339 36.7042C5.31339 37.0242 5.7474 37.2039 6.19994 37.2039C6.65248 37.2039 7.08649 37.0242 7.40648 36.7042C7.72648 36.3842 7.90625 35.9502 7.90625 35.4976V17.0804C7.90738 15.4023 8.23907 13.7409 8.88238 12.191C9.52568 10.6411 10.468 9.23318 11.6555 8.04754C12.843 6.86189 14.2525 5.92179 15.8034 5.28093C17.3542 4.64007 19.0162 4.31099 20.6942 4.31251C23.4643 4.31116 26.1599 5.20907 28.3758 6.87125C30.5917 8.53343 32.2081 10.87 32.982 13.5298C36.4694 13.638 39.7779 15.0988 42.2075 17.6029C44.6371 20.1071 45.9972 23.4583 46 26.9474C46.0003 27.057 45.9926 27.1666 45.977 27.2751C45.9928 27.3846 46.0005 27.4951 46 27.6058V39.445C46 40.6813 44.9937 41.6875 43.7546 41.6875H20.6942C20.3995 41.6879 20.1076 41.6302 19.8352 41.5176C19.5628 41.4051 19.3152 41.24 19.1067 41.0317C18.8982 40.8234 18.7327 40.5761 18.6198 40.3038C18.507 40.0316 18.4489 39.7397 18.4489 39.445V27.6058C18.4489 26.3666 19.4551 25.3633 20.6914 25.3633C21.7801 25.3644 22.8584 25.151 23.8646 24.7353C24.8709 24.3197 25.7854 23.7098 26.5559 22.9407C27.3264 22.1715 27.9378 21.258 28.3552 20.2525C28.7726 19.247 28.9879 18.1691 28.9886 17.0804C28.9879 15.9919 28.7727 14.9142 28.3555 13.9089C27.9383 12.9036 27.3271 11.9903 26.5569 11.2211C25.7867 10.452 24.8725 9.84208 23.8666 9.42624C22.8607 9.01039 21.7827 8.79675 20.6942 8.7975ZM41.5323 27.2751C41.5166 27.1666 41.5089 27.057 41.5092 26.9474C41.508 24.7282 40.682 22.5887 39.1917 20.9443C37.7014 19.3 35.6532 18.2682 33.4449 18.0493C33.2268 20.8736 32.0767 23.5455 30.1752 25.6453C28.2737 27.745 25.7286 29.1537 22.9396 29.6499V37.2025H29.9776V32.2086C29.9776 31.6127 30.2143 31.0413 30.6357 30.6199C31.0571 30.1985 31.6285 29.9618 32.2244 29.9618C32.8203 29.9618 33.3918 30.1985 33.8132 30.6199C34.2345 31.0413 34.4712 31.6127 34.4712 32.2086V37.2025H41.5092V27.6058C41.5092 27.4908 41.515 27.3844 41.5323 27.2751Z" fill="#561C24"/>
</g>
</g>
<defs>
<clipPath id="clip0_350_2954">
<rect width="105" height="46" fill="white"/>
</clipPath>
<clipPath id="clip1_350_2954">
<rect width="46" height="46" fill="white"/>
</clipPath>
</defs>
</svg>
