<svg width="197" height="46" viewBox="0 0 197 46" fill="none" xmlns="http://www.w3.org/2000/svg">
<g clip-path="url(#clip0_350_2939)">
<path d="M58.83 13C59.95 13 60.94 13.26 61.8 13.78C62.66 14.28 63.34 14.98 63.84 15.88C64.34 16.78 64.59 17.81 64.59 18.97C64.59 20.13 64.34 21.18 63.84 22.12C63.34 23.04 62.66 23.77 61.8 24.31C60.94 24.85 59.95 25.12 58.83 25.12H52.47L52.62 24.82V33.1C52.62 33.34 52.53 33.55 52.35 33.73C52.17 33.91 51.96 34 51.72 34C51.44 34 51.22 33.91 51.06 33.73C50.9 33.55 50.82 33.34 50.82 33.1V13.9C50.82 13.66 50.91 13.45 51.09 13.27C51.27 13.09 51.48 13 51.72 13H58.83ZM58.83 23.38C59.61 23.38 60.29 23.19 60.87 22.81C61.45 22.41 61.9 21.88 62.22 21.22C62.56 20.54 62.73 19.79 62.73 18.97C62.73 18.15 62.56 17.43 62.22 16.81C61.9 16.17 61.45 15.67 60.87 15.31C60.29 14.95 59.61 14.77 58.83 14.77H52.47L52.62 14.5V23.56L52.44 23.38H58.83ZM69.1411 34C68.8611 34 68.6411 33.91 68.4811 33.73C68.3211 33.55 68.2411 33.34 68.2411 33.1V19.66C68.2411 19.42 68.3211 19.21 68.4811 19.03C68.6611 18.85 68.8811 18.76 69.1411 18.76C69.4011 18.76 69.6111 18.85 69.7711 19.03C69.9511 19.21 70.0411 19.42 70.0411 19.66V24.16L69.5911 24.25C69.6511 23.55 69.8211 22.86 70.1011 22.18C70.4011 21.48 70.8011 20.84 71.3011 20.26C71.8011 19.68 72.3911 19.21 73.0711 18.85C73.7711 18.49 74.5511 18.31 75.4111 18.31C75.7711 18.31 76.1211 18.39 76.4611 18.55C76.8011 18.69 76.9711 18.93 76.9711 19.27C76.9711 19.57 76.8911 19.8 76.7311 19.96C76.5711 20.12 76.3811 20.2 76.1611 20.2C75.9811 20.2 75.7811 20.15 75.5611 20.05C75.3611 19.95 75.0911 19.9 74.7511 19.9C74.1911 19.9 73.6311 20.07 73.0711 20.41C72.5111 20.73 72.0011 21.17 71.5411 21.73C71.0811 22.29 70.7111 22.92 70.4311 23.62C70.1711 24.3 70.0411 24.99 70.0411 25.69V33.1C70.0411 33.34 69.9511 33.55 69.7711 33.73C69.5911 33.91 69.3811 34 69.1411 34ZM86.0402 34.3C84.5002 34.3 83.1402 33.97 81.9602 33.31C80.7802 32.65 79.8602 31.73 79.2002 30.55C78.5402 29.37 78.2102 27.99 78.2102 26.41C78.2102 24.71 78.5402 23.26 79.2002 22.06C79.8802 20.86 80.7502 19.94 81.8102 19.3C82.8902 18.64 84.0302 18.31 85.2302 18.31C86.1102 18.31 86.9602 18.47 87.7802 18.79C88.6202 19.09 89.3602 19.55 90.0002 20.17C90.6602 20.77 91.1802 21.51 91.5602 22.39C91.9602 23.27 92.1802 24.29 92.2202 25.45C92.2002 25.69 92.1002 25.9 91.9202 26.08C91.7402 26.24 91.5302 26.32 91.2902 26.32H79.2602L78.9002 24.7H90.7202L90.3302 25.06V24.46C90.2502 23.52 89.9502 22.72 89.4302 22.06C88.9102 21.4 88.2802 20.9 87.5402 20.56C86.8002 20.22 86.0302 20.05 85.2302 20.05C84.6302 20.05 84.0102 20.17 83.3702 20.41C82.7502 20.65 82.1802 21.03 81.6602 21.55C81.1602 22.05 80.7502 22.7 80.4302 23.5C80.1102 24.28 79.9502 25.21 79.9502 26.29C79.9502 27.47 80.1902 28.54 80.6702 29.5C81.1502 30.46 81.8402 31.22 82.7402 31.78C83.6602 32.34 84.7502 32.62 86.0102 32.62C86.7102 32.62 87.3402 32.52 87.9002 32.32C88.4602 32.12 88.9502 31.86 89.3702 31.54C89.7902 31.2 90.1402 30.85 90.4202 30.49C90.6402 30.31 90.8602 30.22 91.0802 30.22C91.2802 30.22 91.4502 30.3 91.5902 30.46C91.7502 30.62 91.8302 30.8 91.8302 31C91.8302 31.24 91.7302 31.45 91.5302 31.63C90.9302 32.35 90.1502 32.98 89.1902 33.52C88.2302 34.04 87.1802 34.3 86.0402 34.3ZM102.973 18.55C104.213 18.55 105.273 18.88 106.153 19.54C107.033 20.18 107.633 21.14 107.953 22.42L107.533 22.54L107.713 22C107.973 21.4 108.403 20.84 109.003 20.32C109.623 19.78 110.323 19.35 111.103 19.03C111.883 18.71 112.673 18.55 113.473 18.55C114.733 18.55 115.743 18.82 116.503 19.36C117.283 19.9 117.843 20.63 118.183 21.55C118.543 22.45 118.723 23.47 118.723 24.61V33.1C118.723 33.34 118.633 33.55 118.453 33.73C118.293 33.91 118.083 34 117.823 34C117.563 34 117.343 33.91 117.163 33.73C117.003 33.55 116.923 33.34 116.923 33.1V24.7C116.923 23.88 116.793 23.13 116.533 22.45C116.273 21.77 115.863 21.23 115.303 20.83C114.743 20.43 113.993 20.23 113.053 20.23C112.233 20.23 111.443 20.43 110.683 20.83C109.943 21.23 109.333 21.77 108.853 22.45C108.393 23.13 108.163 23.88 108.163 24.7V33.1C108.163 33.34 108.073 33.55 107.893 33.73C107.733 33.91 107.523 34 107.263 34C107.003 34 106.783 33.91 106.603 33.73C106.443 33.55 106.363 33.34 106.363 33.1V24.61C106.363 23.79 106.243 23.05 106.003 22.39C105.763 21.73 105.373 21.21 104.833 20.83C104.293 20.43 103.563 20.23 102.643 20.23C101.823 20.23 101.043 20.43 100.303 20.83C99.5831 21.21 98.9931 21.73 98.5331 22.39C98.0931 23.05 97.8731 23.79 97.8731 24.61V33.1C97.8731 33.34 97.7831 33.55 97.6031 33.73C97.4231 33.91 97.2131 34 96.9731 34C96.6931 34 96.4731 33.91 96.3131 33.73C96.1531 33.55 96.0731 33.34 96.0731 33.1V19.66C96.0731 19.42 96.1531 19.21 96.3131 19.03C96.4931 18.85 96.7131 18.76 96.9731 18.76C97.2331 18.76 97.4431 18.85 97.6031 19.03C97.7831 19.21 97.8731 19.42 97.8731 19.66V22.45L97.0631 23.56C97.1231 22.96 97.3131 22.36 97.6331 21.76C97.9731 21.16 98.4131 20.62 98.9531 20.14C99.4931 19.66 100.103 19.28 100.783 19C101.483 18.7 102.213 18.55 102.973 18.55ZM125.176 33.1C125.176 33.34 125.086 33.55 124.906 33.73C124.726 33.91 124.516 34 124.276 34C124.016 34 123.796 33.91 123.616 33.73C123.456 33.55 123.376 33.34 123.376 33.1V19.3C123.376 19.06 123.456 18.85 123.616 18.67C123.796 18.49 124.016 18.4 124.276 18.4C124.536 18.4 124.746 18.49 124.906 18.67C125.086 18.85 125.176 19.06 125.176 19.3V33.1ZM124.276 16.39C123.856 16.39 123.536 16.3 123.316 16.12C123.116 15.92 123.016 15.64 123.016 15.28V14.98C123.016 14.62 123.126 14.35 123.346 14.17C123.586 13.97 123.906 13.87 124.306 13.87C124.686 13.87 124.976 13.97 125.176 14.17C125.396 14.35 125.506 14.62 125.506 14.98V15.28C125.506 15.64 125.396 15.92 125.176 16.12C124.976 16.3 124.676 16.39 124.276 16.39ZM136.782 34.3C135.242 34.3 133.882 33.97 132.702 33.31C131.522 32.65 130.602 31.73 129.942 30.55C129.282 29.37 128.952 27.99 128.952 26.41C128.952 24.71 129.282 23.26 129.942 22.06C130.622 20.86 131.492 19.94 132.552 19.3C133.632 18.64 134.772 18.31 135.972 18.31C136.852 18.31 137.702 18.47 138.522 18.79C139.362 19.09 140.102 19.55 140.742 20.17C141.402 20.77 141.922 21.51 142.302 22.39C142.702 23.27 142.922 24.29 142.962 25.45C142.942 25.69 142.842 25.9 142.662 26.08C142.482 26.24 142.272 26.32 142.032 26.32H130.002L129.642 24.7H141.462L141.072 25.06V24.46C140.992 23.52 140.692 22.72 140.172 22.06C139.652 21.4 139.022 20.9 138.282 20.56C137.542 20.22 136.772 20.05 135.972 20.05C135.372 20.05 134.752 20.17 134.112 20.41C133.492 20.65 132.922 21.03 132.402 21.55C131.902 22.05 131.492 22.7 131.172 23.5C130.852 24.28 130.692 25.21 130.692 26.29C130.692 27.47 130.932 28.54 131.412 29.5C131.892 30.46 132.582 31.22 133.482 31.78C134.402 32.34 135.492 32.62 136.752 32.62C137.452 32.62 138.082 32.52 138.642 32.32C139.202 32.12 139.692 31.86 140.112 31.54C140.532 31.2 140.882 30.85 141.162 30.49C141.382 30.31 141.602 30.22 141.822 30.22C142.022 30.22 142.192 30.3 142.332 30.46C142.492 30.62 142.572 30.8 142.572 31C142.572 31.24 142.472 31.45 142.272 31.63C141.672 32.35 140.892 32.98 139.932 33.52C138.972 34.04 137.922 34.3 136.782 34.3ZM147.715 34C147.435 34 147.215 33.91 147.055 33.73C146.895 33.55 146.815 33.34 146.815 33.1V19.66C146.815 19.42 146.895 19.21 147.055 19.03C147.235 18.85 147.455 18.76 147.715 18.76C147.975 18.76 148.185 18.85 148.345 19.03C148.525 19.21 148.615 19.42 148.615 19.66V24.16L148.165 24.25C148.225 23.55 148.395 22.86 148.675 22.18C148.975 21.48 149.375 20.84 149.875 20.26C150.375 19.68 150.965 19.21 151.645 18.85C152.345 18.49 153.125 18.31 153.985 18.31C154.345 18.31 154.695 18.39 155.035 18.55C155.375 18.69 155.545 18.93 155.545 19.27C155.545 19.57 155.465 19.8 155.305 19.96C155.145 20.12 154.955 20.2 154.735 20.2C154.555 20.2 154.355 20.15 154.135 20.05C153.935 19.95 153.665 19.9 153.325 19.9C152.765 19.9 152.205 20.07 151.645 20.41C151.085 20.73 150.575 21.17 150.115 21.73C149.655 22.29 149.285 22.92 149.005 23.62C148.745 24.3 148.615 24.99 148.615 25.69V33.1C148.615 33.34 148.525 33.55 148.345 33.73C148.165 33.91 147.955 34 147.715 34ZM164.614 34.3C163.074 34.3 161.714 33.97 160.534 33.31C159.354 32.65 158.434 31.73 157.774 30.55C157.114 29.37 156.784 27.99 156.784 26.41C156.784 24.71 157.114 23.26 157.774 22.06C158.454 20.86 159.324 19.94 160.384 19.3C161.464 18.64 162.604 18.31 163.804 18.31C164.684 18.31 165.534 18.47 166.354 18.79C167.194 19.09 167.934 19.55 168.574 20.17C169.234 20.77 169.754 21.51 170.134 22.39C170.534 23.27 170.754 24.29 170.794 25.45C170.774 25.69 170.674 25.9 170.494 26.08C170.314 26.24 170.104 26.32 169.864 26.32H157.834L157.474 24.7H169.294L168.904 25.06V24.46C168.824 23.52 168.524 22.72 168.004 22.06C167.484 21.4 166.854 20.9 166.114 20.56C165.374 20.22 164.604 20.05 163.804 20.05C163.204 20.05 162.584 20.17 161.944 20.41C161.324 20.65 160.754 21.03 160.234 21.55C159.734 22.05 159.324 22.7 159.004 23.5C158.684 24.28 158.524 25.21 158.524 26.29C158.524 27.47 158.764 28.54 159.244 29.5C159.724 30.46 160.414 31.22 161.314 31.78C162.234 32.34 163.324 32.62 164.584 32.62C165.284 32.62 165.914 32.52 166.474 32.32C167.034 32.12 167.524 31.86 167.944 31.54C168.364 31.2 168.714 30.85 168.994 30.49C169.214 30.31 169.434 30.22 169.654 30.22C169.854 30.22 170.024 30.3 170.164 30.46C170.324 30.62 170.404 30.8 170.404 31C170.404 31.24 170.304 31.45 170.104 31.63C169.504 32.35 168.724 32.98 167.764 33.52C166.804 34.04 165.754 34.3 164.614 34.3Z" fill="black"/>
<path d="M20.3747 21.2951C20.2611 21.6519 20.0593 21.9743 19.7879 22.2323C19.5165 22.4903 19.1843 22.6755 18.8222 22.7709C17.8138 23.0591 16.757 23.1374 15.7172 23.0009C15.5064 23.0009 15.4297 23.0009 15.4297 22.6942V18.0176C15.4297 17.8451 15.4297 17.6917 15.6597 17.6917C16.5682 17.6783 17.4786 17.7243 18.3814 17.8259C18.7675 17.8713 19.1377 18.0066 19.4623 18.2207C19.7869 18.4348 20.0568 18.722 20.2506 19.0591C20.4443 19.3963 20.5564 19.7741 20.578 20.1624C20.5995 20.5506 20.5299 20.9385 20.3747 21.2951Z" fill="#561C24"/>
<path d="M32.584 3.83398H13.4173C10.8757 3.83398 8.4381 4.84365 6.64088 6.64088C4.84365 8.4381 3.83398 10.8757 3.83398 13.4173V32.584C3.83398 35.1256 4.84365 37.5632 6.64088 39.3604C8.4381 41.1576 10.8757 42.1673 13.4173 42.1673H32.584C35.1256 42.1673 37.5632 41.1576 39.3604 39.3604C41.1576 37.5632 42.1673 35.1256 42.1673 32.584V13.4173C42.1673 10.8757 41.1576 8.4381 39.3604 6.64088C37.5632 4.84365 35.1256 3.83398 32.584 3.83398ZM22.7323 24.0932C21.7493 25.2022 20.376 25.8888 18.899 26.0098C17.9407 26.1248 16.9823 26.0098 16.024 26.1631H15.334V31.089C15.334 31.4723 15.334 31.5298 14.9315 31.5298H12.2098C11.9223 31.5298 11.8073 31.434 11.8073 31.1273V14.9315C11.8073 14.6823 11.8073 14.5482 12.1523 14.5482H17.4423C18.7024 14.5067 19.9532 14.7766 21.084 15.334C21.9672 15.7522 22.7144 16.4112 23.2399 17.235C23.7654 18.0589 24.0479 19.0143 24.0548 19.9915C24.1207 20.7289 24.0376 21.4721 23.8104 22.1767C23.5832 22.8814 23.2166 23.5331 22.7323 24.0932ZM34.1173 21.6207C34.1173 21.889 33.964 21.9465 33.734 21.9465C32.7832 21.9204 31.8373 22.09 30.9548 22.4448L30.7057 22.5598C30.4598 22.6381 30.2489 22.7995 30.109 23.0164C29.9691 23.2332 29.909 23.4919 29.939 23.7482V31.0698C29.939 31.5106 29.939 31.5298 29.4982 31.5298H26.719C26.3165 31.5298 26.2782 31.5298 26.2782 31.089V21.1415C26.2782 20.4132 26.2782 19.6848 26.1823 18.9565C26.1823 18.7073 26.1823 18.5923 26.5082 18.6115H29.0573C29.1197 18.6004 29.1837 18.603 29.245 18.6189C29.3064 18.6348 29.3635 18.6638 29.4126 18.7038C29.4617 18.7438 29.5016 18.794 29.5296 18.8508C29.5576 18.9076 29.573 18.9698 29.5748 19.0332C29.5748 19.4165 29.709 19.819 29.7665 20.1448C30.3415 19.7423 30.8973 19.3015 31.5107 18.9373C32.2047 18.5403 32.9919 18.3352 33.7915 18.3432C34.0215 18.3432 34.1365 18.3432 34.1365 18.669L34.1173 21.6207Z" fill="#561C24"/>
</g>
<defs>
<clipPath id="clip0_350_2939">
<rect width="197" height="46" fill="white"/>
</clipPath>
</defs>
</svg>
