<svg width="229" height="46" viewBox="0 0 229 46" fill="none" xmlns="http://www.w3.org/2000/svg">
<g clip-path="url(#clip0_350_2935)">
<path d="M66 12.97C66.28 12.97 66.5 13.05 66.66 13.21C66.84 13.37 66.93 13.57 66.93 13.81C66.93 13.95 66.9 14.1 66.84 14.26L58.83 33.4C58.73 33.6 58.6 33.75 58.44 33.85C58.28 33.95 58.12 34 57.96 34C57.78 34 57.61 33.95 57.45 33.85C57.29 33.75 57.18 33.61 57.12 33.43L49.14 14.32C49.12 14.26 49.1 14.19 49.08 14.11C49.06 14.03 49.05 13.94 49.05 13.84C49.05 13.58 49.14 13.37 49.32 13.21C49.52 13.05 49.72 12.97 49.92 12.97C50.34 12.97 50.64 13.19 50.82 13.63L58.32 31.57H57.78L65.16 13.57C65.36 13.17 65.64 12.97 66 12.97ZM72.0612 33.1C72.0612 33.34 71.9712 33.55 71.7912 33.73C71.6112 33.91 71.4012 34 71.1612 34C70.9012 34 70.6812 33.91 70.5012 33.73C70.3412 33.55 70.2612 33.34 70.2612 33.1V19.3C70.2612 19.06 70.3412 18.85 70.5012 18.67C70.6812 18.49 70.9012 18.4 71.1612 18.4C71.4212 18.4 71.6312 18.49 71.7912 18.67C71.9712 18.85 72.0612 19.06 72.0612 19.3V33.1ZM71.1612 16.39C70.7412 16.39 70.4212 16.3 70.2012 16.12C70.0012 15.92 69.9012 15.64 69.9012 15.28V14.98C69.9012 14.62 70.0112 14.35 70.2312 14.17C70.4712 13.97 70.7912 13.87 71.1912 13.87C71.5712 13.87 71.8612 13.97 72.0612 14.17C72.2812 14.35 72.3912 14.62 72.3912 14.98V15.28C72.3912 15.64 72.2812 15.92 72.0612 16.12C71.8612 16.3 71.5612 16.39 71.1612 16.39ZM89.3072 11.8C89.5672 11.8 89.7772 11.89 89.9372 12.07C90.1172 12.23 90.2072 12.44 90.2072 12.7V33.1C90.2072 33.34 90.1172 33.55 89.9372 33.73C89.7572 33.91 89.5472 34 89.3072 34C89.0472 34 88.8272 33.91 88.6472 33.73C88.4872 33.55 88.4072 33.34 88.4072 33.1V29.53L88.9172 29.11C88.9172 29.67 88.7672 30.26 88.4672 30.88C88.1672 31.48 87.7372 32.04 87.1772 32.56C86.6372 33.08 85.9972 33.5 85.2572 33.82C84.5372 34.14 83.7572 34.3 82.9172 34.3C81.5772 34.3 80.3672 33.95 79.2872 33.25C78.2272 32.55 77.3872 31.6 76.7672 30.4C76.1472 29.2 75.8372 27.83 75.8372 26.29C75.8372 24.77 76.1472 23.41 76.7672 22.21C77.3872 20.99 78.2272 20.04 79.2872 19.36C80.3472 18.66 81.5472 18.31 82.8872 18.31C83.7072 18.31 84.4872 18.46 85.2272 18.76C85.9672 19.06 86.6172 19.47 87.1772 19.99C87.7572 20.51 88.2072 21.11 88.5272 21.79C88.8672 22.45 89.0372 23.14 89.0372 23.86L88.4072 23.41V12.7C88.4072 12.46 88.4872 12.25 88.6472 12.07C88.8272 11.89 89.0472 11.8 89.3072 11.8ZM83.0672 32.62C84.1472 32.62 85.0872 32.35 85.8872 31.81C86.7072 31.25 87.3472 30.5 87.8072 29.56C88.2872 28.6 88.5272 27.51 88.5272 26.29C88.5272 25.09 88.2872 24.02 87.8072 23.08C87.3472 22.12 86.7072 21.37 85.8872 20.83C85.0672 20.27 84.1272 19.99 83.0672 19.99C82.0272 19.99 81.0872 20.27 80.2472 20.83C79.4272 21.37 78.7772 22.12 78.2972 23.08C77.8372 24.02 77.6072 25.09 77.6072 26.29C77.6072 27.49 77.8372 28.57 78.2972 29.53C78.7772 30.49 79.4272 31.25 80.2472 31.81C81.0872 32.35 82.0272 32.62 83.0672 32.62ZM101.861 34.3C100.321 34.3 98.9605 33.97 97.7805 33.31C96.6005 32.65 95.6805 31.73 95.0205 30.55C94.3605 29.37 94.0305 27.99 94.0305 26.41C94.0305 24.71 94.3605 23.26 95.0205 22.06C95.7005 20.86 96.5705 19.94 97.6305 19.3C98.7105 18.64 99.8505 18.31 101.051 18.31C101.931 18.31 102.781 18.47 103.601 18.79C104.441 19.09 105.181 19.55 105.821 20.17C106.481 20.77 107.001 21.51 107.381 22.39C107.781 23.27 108.001 24.29 108.041 25.45C108.021 25.69 107.921 25.9 107.741 26.08C107.561 26.24 107.351 26.32 107.111 26.32H95.0805L94.7205 24.7H106.541L106.151 25.06V24.46C106.071 23.52 105.771 22.72 105.251 22.06C104.731 21.4 104.101 20.9 103.361 20.56C102.621 20.22 101.851 20.05 101.051 20.05C100.451 20.05 99.8305 20.17 99.1905 20.41C98.5705 20.65 98.0005 21.03 97.4805 21.55C96.9805 22.05 96.5705 22.7 96.2505 23.5C95.9305 24.28 95.7705 25.21 95.7705 26.29C95.7705 27.47 96.0105 28.54 96.4905 29.5C96.9705 30.46 97.6605 31.22 98.5605 31.78C99.4805 32.34 100.571 32.62 101.831 32.62C102.531 32.62 103.161 32.52 103.721 32.32C104.281 32.12 104.771 31.86 105.191 31.54C105.611 31.2 105.961 30.85 106.241 30.49C106.461 30.31 106.681 30.22 106.901 30.22C107.101 30.22 107.271 30.3 107.411 30.46C107.571 30.62 107.651 30.8 107.651 31C107.651 31.24 107.551 31.45 107.351 31.63C106.751 32.35 105.971 32.98 105.011 33.52C104.051 34.04 103.001 34.3 101.861 34.3ZM126.173 26.32C126.173 27.84 125.843 29.21 125.183 30.43C124.523 31.63 123.623 32.58 122.483 33.28C121.343 33.96 120.043 34.3 118.583 34.3C117.163 34.3 115.873 33.96 114.713 33.28C113.573 32.58 112.663 31.63 111.983 30.43C111.323 29.21 110.993 27.84 110.993 26.32C110.993 24.78 111.323 23.41 111.983 22.21C112.663 21.01 113.573 20.06 114.713 19.36C115.873 18.66 117.163 18.31 118.583 18.31C120.043 18.31 121.343 18.66 122.483 19.36C123.623 20.06 124.523 21.01 125.183 22.21C125.843 23.41 126.173 24.78 126.173 26.32ZM124.373 26.32C124.373 25.1 124.123 24.02 123.623 23.08C123.123 22.12 122.433 21.37 121.553 20.83C120.693 20.27 119.703 19.99 118.583 19.99C117.503 19.99 116.523 20.27 115.643 20.83C114.763 21.37 114.063 22.12 113.543 23.08C113.043 24.02 112.793 25.1 112.793 26.32C112.793 27.54 113.043 28.62 113.543 29.56C114.063 30.5 114.763 31.25 115.643 31.81C116.523 32.35 117.503 32.62 118.583 32.62C119.703 32.62 120.693 32.35 121.553 31.81C122.433 31.25 123.123 30.5 123.623 29.56C124.123 28.62 124.373 27.54 124.373 26.32ZM139.552 13H150.562C150.802 13 151.012 13.09 151.192 13.27C151.372 13.43 151.462 13.64 151.462 13.9C151.462 14.16 151.372 14.37 151.192 14.53C151.012 14.69 150.802 14.77 150.562 14.77H140.242L140.542 14.26V22.69L140.212 22.3H149.212C149.452 22.3 149.662 22.39 149.842 22.57C150.022 22.75 150.112 22.96 150.112 23.2C150.112 23.46 150.022 23.67 149.842 23.83C149.662 23.99 149.452 24.07 149.212 24.07H140.272L140.542 23.77V32.41L140.392 32.23H150.562C150.802 32.23 151.012 32.32 151.192 32.5C151.372 32.68 151.462 32.89 151.462 33.13C151.462 33.39 151.372 33.6 151.192 33.76C151.012 33.92 150.802 34 150.562 34H139.552C139.312 34 139.102 33.91 138.922 33.73C138.742 33.55 138.652 33.34 138.652 33.1V13.9C138.652 13.66 138.742 13.45 138.922 13.27C139.102 13.09 139.312 13 139.552 13ZM167.676 11.8C167.936 11.8 168.146 11.89 168.306 12.07C168.486 12.23 168.576 12.44 168.576 12.7V33.1C168.576 33.34 168.486 33.55 168.306 33.73C168.126 33.91 167.916 34 167.676 34C167.416 34 167.196 33.91 167.016 33.73C166.856 33.55 166.776 33.34 166.776 33.1V29.53L167.286 29.11C167.286 29.67 167.136 30.26 166.836 30.88C166.536 31.48 166.106 32.04 165.546 32.56C165.006 33.08 164.366 33.5 163.626 33.82C162.906 34.14 162.126 34.3 161.286 34.3C159.946 34.3 158.736 33.95 157.656 33.25C156.596 32.55 155.756 31.6 155.136 30.4C154.516 29.2 154.206 27.83 154.206 26.29C154.206 24.77 154.516 23.41 155.136 22.21C155.756 20.99 156.596 20.04 157.656 19.36C158.716 18.66 159.916 18.31 161.256 18.31C162.076 18.31 162.856 18.46 163.596 18.76C164.336 19.06 164.986 19.47 165.546 19.99C166.126 20.51 166.576 21.11 166.896 21.79C167.236 22.45 167.406 23.14 167.406 23.86L166.776 23.41V12.7C166.776 12.46 166.856 12.25 167.016 12.07C167.196 11.89 167.416 11.8 167.676 11.8ZM161.436 32.62C162.516 32.62 163.456 32.35 164.256 31.81C165.076 31.25 165.716 30.5 166.176 29.56C166.656 28.6 166.896 27.51 166.896 26.29C166.896 25.09 166.656 24.02 166.176 23.08C165.716 22.12 165.076 21.37 164.256 20.83C163.436 20.27 162.496 19.99 161.436 19.99C160.396 19.99 159.456 20.27 158.616 20.83C157.796 21.37 157.146 22.12 156.666 23.08C156.206 24.02 155.976 25.09 155.976 26.29C155.976 27.49 156.206 28.57 156.666 29.53C157.146 30.49 157.796 31.25 158.616 31.81C159.456 32.35 160.396 32.62 161.436 32.62ZM175.04 33.1C175.04 33.34 174.95 33.55 174.77 33.73C174.59 33.91 174.38 34 174.14 34C173.88 34 173.66 33.91 173.48 33.73C173.32 33.55 173.24 33.34 173.24 33.1V19.3C173.24 19.06 173.32 18.85 173.48 18.67C173.66 18.49 173.88 18.4 174.14 18.4C174.4 18.4 174.61 18.49 174.77 18.67C174.95 18.85 175.04 19.06 175.04 19.3V33.1ZM174.14 16.39C173.72 16.39 173.4 16.3 173.18 16.12C172.98 15.92 172.88 15.64 172.88 15.28V14.98C172.88 14.62 172.99 14.35 173.21 14.17C173.45 13.97 173.77 13.87 174.17 13.87C174.55 13.87 174.84 13.97 175.04 14.17C175.26 14.35 175.37 14.62 175.37 14.98V15.28C175.37 15.64 175.26 15.92 175.04 16.12C174.84 16.3 174.54 16.39 174.14 16.39ZM178.726 18.73H185.716C185.956 18.73 186.156 18.82 186.316 19C186.476 19.16 186.556 19.36 186.556 19.6C186.556 19.82 186.476 20.01 186.316 20.17C186.156 20.33 185.956 20.41 185.716 20.41H178.726C178.486 20.41 178.276 20.33 178.096 20.17C177.936 19.99 177.856 19.79 177.856 19.57C177.856 19.33 177.936 19.13 178.096 18.97C178.276 18.81 178.486 18.73 178.726 18.73ZM181.816 14.5C182.076 14.5 182.286 14.59 182.446 14.77C182.626 14.95 182.716 15.16 182.716 15.4V30.46C182.716 31.02 182.786 31.44 182.926 31.72C183.086 32 183.286 32.19 183.526 32.29C183.766 32.37 184.006 32.41 184.246 32.41C184.406 32.41 184.546 32.39 184.666 32.35C184.806 32.29 184.956 32.26 185.116 32.26C185.296 32.26 185.446 32.33 185.566 32.47C185.706 32.61 185.776 32.79 185.776 33.01C185.776 33.29 185.616 33.53 185.296 33.73C184.976 33.91 184.596 34 184.156 34C183.976 34 183.706 33.99 183.346 33.97C182.986 33.93 182.616 33.82 182.236 33.64C181.856 33.44 181.536 33.1 181.276 32.62C181.036 32.14 180.916 31.45 180.916 30.55V15.4C180.916 15.16 180.996 14.95 181.156 14.77C181.336 14.59 181.556 14.5 181.816 14.5ZM191.622 33.1C191.622 33.34 191.532 33.55 191.352 33.73C191.172 33.91 190.962 34 190.722 34C190.462 34 190.242 33.91 190.062 33.73C189.902 33.55 189.822 33.34 189.822 33.1V19.3C189.822 19.06 189.902 18.85 190.062 18.67C190.242 18.49 190.462 18.4 190.722 18.4C190.982 18.4 191.192 18.49 191.352 18.67C191.532 18.85 191.622 19.06 191.622 19.3V33.1ZM190.722 16.39C190.302 16.39 189.982 16.3 189.762 16.12C189.562 15.92 189.462 15.64 189.462 15.28V14.98C189.462 14.62 189.572 14.35 189.792 14.17C190.032 13.97 190.352 13.87 190.752 13.87C191.132 13.87 191.422 13.97 191.622 14.17C191.842 14.35 191.952 14.62 191.952 14.98V15.28C191.952 15.64 191.842 15.92 191.622 16.12C191.422 16.3 191.122 16.39 190.722 16.39ZM203.528 18.31C204.848 18.31 205.898 18.58 206.678 19.12C207.478 19.64 208.048 20.36 208.388 21.28C208.748 22.18 208.928 23.18 208.928 24.28V33.1C208.928 33.34 208.838 33.55 208.658 33.73C208.478 33.91 208.268 34 208.028 34C207.748 34 207.528 33.91 207.368 33.73C207.208 33.55 207.128 33.34 207.128 33.1V24.37C207.128 23.57 206.998 22.84 206.738 22.18C206.478 21.52 206.048 20.99 205.448 20.59C204.868 20.19 204.098 19.99 203.138 19.99C202.278 19.99 201.458 20.19 200.678 20.59C199.918 20.99 199.298 21.52 198.818 22.18C198.338 22.84 198.098 23.57 198.098 24.37V33.1C198.098 33.34 198.008 33.55 197.828 33.73C197.648 33.91 197.438 34 197.198 34C196.918 34 196.698 33.91 196.538 33.73C196.378 33.55 196.298 33.34 196.298 33.1V19.66C196.298 19.42 196.378 19.21 196.538 19.03C196.718 18.85 196.938 18.76 197.198 18.76C197.458 18.76 197.668 18.85 197.828 19.03C198.008 19.21 198.098 19.42 198.098 19.66V22.18L197.408 23.26C197.448 22.62 197.648 22.01 198.008 21.43C198.388 20.83 198.868 20.3 199.448 19.84C200.028 19.36 200.668 18.99 201.368 18.73C202.088 18.45 202.808 18.31 203.528 18.31ZM220.031 18.31C220.931 18.31 221.761 18.47 222.521 18.79C223.281 19.09 223.941 19.49 224.501 19.99C225.081 20.47 225.531 20.99 225.851 21.55C226.171 22.09 226.331 22.61 226.331 23.11L225.821 22.39V19.6C225.821 19.34 225.901 19.12 226.061 18.94C226.241 18.76 226.461 18.67 226.721 18.67C227.001 18.67 227.221 18.76 227.381 18.94C227.541 19.12 227.621 19.34 227.621 19.6V32.59C227.621 34.19 227.291 35.54 226.631 36.64C225.971 37.74 225.071 38.57 223.931 39.13C222.811 39.71 221.531 40 220.091 40C219.391 40 218.651 39.91 217.871 39.73C217.111 39.55 216.451 39.32 215.891 39.04C215.351 38.76 215.051 38.47 214.991 38.17C214.831 37.99 214.751 37.81 214.751 37.63C214.771 37.47 214.861 37.33 215.021 37.21C215.221 37.07 215.431 37.05 215.651 37.15C215.871 37.27 216.201 37.42 216.641 37.6C216.841 37.66 217.111 37.75 217.451 37.87C217.791 37.99 218.191 38.09 218.651 38.17C219.131 38.27 219.631 38.32 220.151 38.32C221.951 38.32 223.341 37.8 224.321 36.76C225.321 35.74 225.821 34.39 225.821 32.71V29.83L226.151 29.92C225.971 30.64 225.671 31.27 225.251 31.81C224.851 32.35 224.371 32.81 223.811 33.19C223.251 33.55 222.641 33.82 221.981 34C221.341 34.2 220.701 34.3 220.061 34.3C218.681 34.3 217.441 33.95 216.341 33.25C215.241 32.55 214.361 31.6 213.701 30.4C213.061 29.2 212.741 27.83 212.741 26.29C212.741 24.77 213.061 23.41 213.701 22.21C214.361 20.99 215.231 20.04 216.311 19.36C217.411 18.66 218.651 18.31 220.031 18.31ZM220.241 19.99C219.141 19.99 218.151 20.27 217.271 20.83C216.411 21.37 215.731 22.12 215.231 23.08C214.751 24.02 214.511 25.09 214.511 26.29C214.511 27.49 214.751 28.57 215.231 29.53C215.731 30.49 216.411 31.25 217.271 31.81C218.151 32.35 219.141 32.62 220.241 32.62C221.341 32.62 222.321 32.35 223.181 31.81C224.041 31.27 224.721 30.53 225.221 29.59C225.721 28.63 225.971 27.53 225.971 26.29C225.971 25.05 225.721 23.96 225.221 23.02C224.721 22.06 224.041 21.32 223.181 20.8C222.321 20.26 221.341 19.99 220.241 19.99Z" fill="black"/>
<path d="M36.9254 25.2426C37.8875 24.4347 39.3864 24.5909 40.1933 25.554C41.0002 26.5172 40.8862 27.9758 39.924 28.7836M36.9254 25.2426L38.3878 26.9848L39.924 28.7836M36.9254 25.2426L27.3114 32.846M36.9254 25.2426L38.3878 26.9868L39.924 28.7836M39.924 28.7836L30.3368 36.4532L25.7637 37.0991L27.3114 32.8479" stroke="#561C24" stroke-width="1.5" stroke-linecap="round" stroke-linejoin="round"/>
<path d="M40.7298 27.0216V11.9153C40.7298 11.5196 40.6519 11.1277 40.5004 10.7621C40.3489 10.3965 40.1269 10.0643 39.847 9.78449C39.5671 9.5047 39.2348 9.28278 38.8692 9.13142C38.5035 8.98006 38.1116 8.90222 37.7159 8.90234H32.3712L36.3292 14.6677H31.3956L27.4377 8.90234H23.4702L27.4377 14.6677H22.5071L18.5396 8.90234H14.5817L18.5396 14.6677H13.6071L9.65107 8.90234H8.2864C7.89057 8.90209 7.49856 8.97984 7.13279 9.13115C6.76701 9.28245 6.43464 9.50435 6.15465 9.78415C5.87466 10.064 5.65256 10.3962 5.50102 10.7619C5.34948 11.1276 5.27148 11.5195 5.27148 11.9153V34.0835C5.27148 34.8826 5.58892 35.649 6.15397 36.214C6.71902 36.7791 7.48539 37.0965 8.28448 37.0965H25.7626" stroke="#561C24" stroke-width="1.5" stroke-linecap="round" stroke-linejoin="round"/>
<path d="M37.6127 24.8537V17.625L8.38924 17.6652V31.7623C8.4592 32.6047 8.07586 33.9128 9.14057 34.255L9.22011 34.2655L9.31978 34.2789L26.7787 34.3038" stroke="#561C24" stroke-width="1.5" stroke-linecap="round" stroke-linejoin="round"/>
</g>
<defs>
<clipPath id="clip0_350_2935">
<rect width="229" height="46" fill="white"/>
</clipPath>
</defs>
</svg>
